<?xml version="1.0" standalone="no"?>
<!DOCTYPE svg PUBLIC "-//W3C//DTD SVG 1.1//EN" "http://www.w3.org/Graphics/SVG/1.1/DTD/svg11.dtd" >
<svg xmlns="http://www.w3.org/2000/svg" xmlns:xlink="http://www.w3.org/1999/xlink" version="1.1">
<metadata></metadata>
<defs>
<font id="amsi_probold" horiz-adv-x="1226" >
<font-face units-per-em="2048" ascent="1536" descent="-512" />
<missing-glyph horiz-adv-x="598" />
<glyph unicode="&#xfb01;" horiz-adv-x="1253" d="M41 897v115q0 25 9.5 36t35.5 11h111v88q0 313 315 313q100 0 158 -20q22 -7 32.5 -16t10.5 -29v-95q0 -22 -11.5 -33.5t-29.5 -9.5q-80 11 -99 11q-110 0 -110 -129v-80h602q25 0 36 -11t11 -36v-965q0 -25 -11 -36t-36 -11h-176q-49 0 -49 47v803h-375v-807 q0 -23 -11 -33t-36 -10h-172q-49 0 -49 43v807h-111q-45 0 -45 47zM842 1253v144q0 45 49 45h170q49 0 49 -45v-144q0 -47 -49 -47h-170q-49 0 -49 47z" />
<glyph unicode="&#xfb02;" horiz-adv-x="1251" d="M41 897v115q0 47 45 47h111v51q0 188 110 270t379 82q108 0 216 -14t161 -31q27 -8 37 -18.5t10 -34.5v-1317q0 -25 -10.5 -36t-34.5 -11h-178q-25 0 -36 11t-11 36v1202q-67 13 -162 13q-119 0 -167 -35.5t-48 -114.5v-53h145q24 0 34.5 -11t10.5 -36v-115 q0 -25 -10.5 -36t-34.5 -11h-143v-807q0 -23 -11 -33t-36 -10h-172q-49 0 -49 43v807h-111q-45 0 -45 47z" />
<glyph unicode="&#xfb03;" horiz-adv-x="1896" d="M41 897v115q0 47 45 47h111v94q0 152 80 229.5t237 77.5q94 0 156 -20q14 -5 22 -9t14.5 -13t6.5 -23v-95q0 -24 -9.5 -35t-29.5 -8q-57 11 -96 11q-113 0 -113 -125v-84h375v94q0 307 317 307q94 0 156 -20q14 -5 22 -9t14.5 -13t6.5 -23v-95q0 -23 -10 -34.5t-29 -8.5 q-60 11 -98 11q-111 0 -111 -125v-84h598q25 0 36 -11t11 -36v-965q0 -25 -11 -36t-36 -11h-176q-25 0 -36 11t-11 36v803h-375v-807q0 -23 -11 -33t-36 -10h-174q-25 0 -36 10t-11 33v807h-375v-807q0 -23 -11 -33t-36 -10h-172q-49 0 -49 43v807h-111q-45 0 -45 47z M1485 1253v144q0 24 11 34.5t36 10.5h172q25 0 36 -10.5t11 -34.5v-144q0 -25 -11 -36t-36 -11h-172q-25 0 -36 11t-11 36z" />
<glyph unicode="&#xfb04;" horiz-adv-x="1892" d="M41 897v115q0 47 45 47h111v94q0 152 80 229.5t237 77.5q94 0 156 -20q14 -5 22 -9t14.5 -13t6.5 -23v-95q0 -23 -10 -34.5t-29 -8.5q-57 11 -96 11q-113 0 -113 -125v-84h375v51q0 188 110 270t379 82q106 0 214 -14t161 -31q28 -8 38.5 -19t10.5 -36v-1315 q0 -25 -11 -36t-36 -11h-178q-25 0 -36 11t-11 36v1202q-67 13 -160 13q-119 0 -166 -35.5t-47 -114.5v-53h141q25 0 36 -11t11 -36v-115q0 -25 -11 -36t-36 -11h-141v-807q0 -23 -11 -33t-36 -10h-174q-25 0 -36 10.5t-11 34.5v805h-375v-807q0 -23 -11 -33t-36 -10h-172 q-49 0 -49 43v807h-111q-45 0 -45 47z" />
<glyph horiz-adv-x="0" />
<glyph horiz-adv-x="682" />
<glyph unicode=" "  horiz-adv-x="598" />
<glyph unicode="&#x09;" horiz-adv-x="598" />
<glyph unicode="&#xa0;" horiz-adv-x="598" />
<glyph unicode="!" horiz-adv-x="632" d="M154 1393q-3 49 49 49h227q52 0 49 -49l-51 -910q-3 -45 -49 -45h-125q-46 0 -49 45zM170 47v199q0 47 49 47h195q49 0 49 -47v-199q0 -47 -45 -47h-203q-45 0 -45 47z" />
<glyph unicode="&#x22;" horiz-adv-x="768" d="M100 1395q0 47 26.5 70.5t86.5 23.5q115 0 115 -94q0 -41 -13 -125l-53 -342h-98l-53 342q-11 71 -11 125zM440 1395q0 47 26.5 70.5t86.5 23.5q61 0 88 -23.5t27 -70.5q0 -53 -11 -125l-53 -342h-98l-53 342q-13 84 -13 125z" />
<glyph unicode="#" horiz-adv-x="1320" d="M33 418v78q0 47 47 47h199l92 348h-148q-47 0 -47 49v76q0 25 11 36t36 11h193l94 362q12 45 57 33l84 -20q48 -11 35 -60l-82 -315h295l94 362q12 46 58 33l84 -20q46 -11 34 -60l-82 -315h152q25 0 36 -11t11 -36v-76q0 -49 -47 -49h-199l-92 -348h148q49 0 49 -47v-78 q0 -47 -49 -47h-193l-90 -353q-12 -46 -57 -34l-84 24q-47 13 -35 58l80 305h-297l-90 -353q-12 -46 -60 -34l-82 24q-46 12 -34 58l79 305h-153q-47 0 -47 47zM465 543h297l90 348h-295z" />
<glyph unicode="$" horiz-adv-x="1210" d="M87.5 88.5q-6.5 11.5 0.5 38.5l47 131q18 47 64 29q166 -64 329 -64q322 0 322 174q0 55 -41.5 96.5t-83.5 60.5t-141 54q-27 10 -41 15q-47 17 -74.5 27t-71 27.5t-69.5 32t-61.5 37t-57 44.5t-45 52.5t-36.5 63.5t-21.5 75t-8.5 89q0 168 112.5 268t317.5 119v144 q0 45 50 45h86q25 0 36 -10.5t11 -34.5v-140q96 -6 188.5 -29t138.5 -47q23 -11 30 -23.5t-1 -37.5l-49 -127q-15 -47 -64 -29q-135 52 -292 52q-131 0 -204 -41.5t-73 -116.5q0 -32 15 -59t32 -44t59 -38t66.5 -31t84.5 -32q26 -10 40 -15q184 -69 259 -113 q153 -92 185 -241q9 -43 9 -93q0 -92 -31.5 -164t-89.5 -120t-131 -77t-164 -42v-152q0 -25 -11 -36t-36 -11h-86q-49 0 -49 47v142q-127 3 -238.5 27t-179.5 55q-25 11 -31.5 22.5z" />
<glyph unicode="%" horiz-adv-x="1957" d="M80 1028q0 206 97 318t263 112q167 0 265 -112t98 -318t-98 -318t-265 -112q-166 0 -263 112t-97 318zM293 1028q0 -254 147 -254q150 0 150 254t-150 254q-147 0 -147 -254zM463 47l817 1352q14 24 29 33.5t41 9.5h120q53 0 27 -45l-821 -1352q-14 -25 -28 -35t-38 -10 h-123q-50 0 -24 47zM1155 416q0 206 98 318t265 112q166 0 263 -112t97 -318t-97.5 -318t-264.5 -112q-166 0 -263.5 112t-97.5 318zM1368 416q0 -254 150 -254q149 0 149 254t-149 254q-150 0 -150 -254z" />
<glyph unicode="&#x26;" horiz-adv-x="1505" d="M86 434q0 162 96 271t262 153l-38 41q-63 66 -91 129.5t-28 142.5q0 134 99 214.5t319 80.5q158 0 278 -51q51 -22 39 -61l-31 -103q-13 -48 -67 -30q-95 30 -189 30q-200 0 -200 -112q0 -17 2.5 -32t10.5 -31.5t13 -26.5t19.5 -28t20 -24.5t25 -27t23.5 -25.5l469 -512 q45 78 45 186q0 26 -10 64.5t-10 50.5q0 23 9.5 31t33.5 8h139q32 0 43 -37q18 -61 18 -131q0 -205 -108 -348l186 -207q15 -17 9 -33t-25 -16h-178q-50 0 -76 29l-76 82q-167 -129 -434 -129q-173 0 -306.5 50.5t-212.5 154t-79 247.5zM367 455q0 -105 93 -173.5t255 -68.5 q173 0 254 66l-387 419q-109 -29 -162 -88.5t-53 -154.5z" />
<glyph unicode="'" horiz-adv-x="425" d="M100 1395q0 47 26.5 70.5t86.5 23.5q115 0 115 -94q0 -41 -13 -125l-53 -342h-98l-53 342q-11 71 -11 125z" />
<glyph unicode="(" horiz-adv-x="768" d="M156 610q0 239 94.5 456t236.5 372q21 24 56 24h127q25 0 31 -16t-7 -33q-122 -157 -197 -369.5t-75 -433.5q0 -216 75 -425t197 -373q13 -19 7 -35.5t-31 -16.5h-127q-33 0 -56 23q-142 157 -236.5 373t-94.5 454z" />
<glyph unicode=")" horiz-adv-x="768" d="M67.5 -222.5q-6.5 17.5 6.5 34.5q122 174 199 380t77 418q0 216 -76.5 425t-199.5 378q-13 17 -6.5 33t30.5 16h129q35 0 56 -24q142 -155 236.5 -372t94.5 -456q0 -238 -94.5 -454t-236.5 -373q-23 -23 -56 -23h-129q-24 0 -30.5 17.5z" />
<glyph unicode="*" horiz-adv-x="868" d="M89 1209.5q-8 23.5 15 64.5q23 39 48.5 45.5t60.5 -14.5q28 -17 89 -72t87 -74q-3 33 -20 113.5t-17 111.5q0 42 18 60t64 18q45 0 61.5 -18t16.5 -60q0 -32 -15 -112.5t-18 -112.5q20 15 83.5 71.5t92.5 72.5q35 22 61 15.5t48 -44.5q22 -42 15 -66t-44 -47 q-27 -16 -105.5 -41t-105.5 -37q32 -16 109 -41.5t102 -40.5q37 -25 44.5 -47t-13.5 -63q-25 -39 -50.5 -46t-60.5 15q-28 16 -89 71.5t-85 72.5q3 -31 19 -112t16 -112q0 -42 -17.5 -60t-62.5 -18q-46 0 -64 18t-18 60q0 30 17 111t20 113q-26 -18 -88 -72t-90 -70 q-35 -23 -61.5 -16.5t-47.5 45.5q-22 40 -14.5 64t45.5 46q24 14 101.5 39.5t107.5 40.5q-29 14 -106.5 40.5t-102.5 41.5q-38 23 -46 46.5z" />
<glyph unicode="+" d="M115 643v127q0 25 11 36t36 11h327v328q0 47 48 47h153q45 0 45 -47v-328h330q47 0 47 -47v-127q0 -45 -47 -45h-330v-332q0 -47 -45 -47h-153q-48 0 -48 47v332h-327q-47 0 -47 45z" />
<glyph unicode="," horiz-adv-x="507" d="M113 47v197q0 45 51 45h180q27 0 39 -10.5t12 -34.5v-178q0 -36 -12 -60l-111 -239q-14 -27 -39 -27h-63q-18 0 -24.5 12t-0.5 31l70 217h-55q-25 0 -36 11t-11 36z" />
<glyph unicode="-" horiz-adv-x="817" d="M82 492v129q0 45 47 45h557q47 0 47 -45v-129q0 -46 -47 -46h-557q-47 0 -47 46z" />
<glyph unicode="." horiz-adv-x="507" d="M113 47v197q0 45 51 45h180q27 0 39 -10.5t12 -34.5v-197q0 -25 -11 -36t-36 -11h-188q-25 0 -36 11t-11 36z" />
<glyph unicode="/" horiz-adv-x="925" d="M22 16q-9 16 3 41l616 1342q10 22 24 32.5t42 10.5h157q29 0 38.5 -16.5t-1.5 -41.5l-618 -1341q-17 -43 -64 -43h-158q-30 0 -39 16z" />
<glyph unicode="0" horiz-adv-x="1394" d="M106 721q0 365 155.5 555t434.5 190t434.5 -190t155.5 -553t-155.5 -553t-434.5 -190q-278 0 -434 190t-156 551zM393 723q0 -498 303 -498q305 0 305 498q0 496 -305 496q-303 0 -303 -496z" />
<glyph unicode="1" horiz-adv-x="991" d="M72 1098q-24 30 6 53l368 270q31 21 72 21h187q26 0 37.5 -11.5t11.5 -37.5v-1342q0 -28 -11.5 -39.5t-37.5 -11.5h-181q-28 0 -39.5 11.5t-11.5 39.5v1092l-254 -164q-36 -20 -59 8z" />
<glyph unicode="2" horiz-adv-x="1288" d="M111 51v109q0 24 7.5 36.5t28.5 24.5q102 60 192 119.5t191.5 142t173 161.5t119 172.5t47.5 180.5q0 236 -252 236q-128 0 -184.5 -55.5t-56.5 -137.5q0 -27 4 -61t4 -45q0 -22 -10 -31.5t-33 -9.5h-166q-23 0 -33.5 11t-15.5 36q-12 44 -12 111q0 87 30 160.5t89.5 131 t158.5 90.5t228 33q115 0 206 -23.5t151.5 -64t100 -98t57 -122t17.5 -140.5q0 -96 -42 -195t-105.5 -181t-150.5 -162.5t-166 -138t-163 -108.5h590q51 0 51 -49v-133q0 -27 -12 -39t-39 -12h-956q-49 0 -49 51z" />
<glyph unicode="3" horiz-adv-x="1208" d="M63 131l50 127q16 47 63 27q161 -70 348 -70q152 0 224.5 54t72.5 165q0 104 -67.5 152.5t-200.5 48.5h-160q-51 0 -51 49v123q0 47 51 47h152q121 0 181 46.5t60 146.5q0 93 -66.5 139.5t-184.5 46.5q-178 0 -345 -68q-45 -16 -61 29l-49 121q-8 24 -0.5 37t31.5 24 q202 88 450 88q103 0 192 -22t159 -65.5t110.5 -117t40.5 -169.5q0 -245 -211 -322q109 -31 178.5 -114.5t69.5 -227.5q0 -220 -140.5 -332t-408.5 -112q-260 0 -457 90q-23 11 -30.5 24t-0.5 35z" />
<glyph unicode="4" horiz-adv-x="1361" d="M74 350v131q0 35 20 62l709 870q23 29 57 29h189q51 0 51 -49v-863h176q49 0 49 -51v-129q0 -51 -49 -51h-176v-248q0 -51 -49 -51h-183q-49 0 -49 51v248h-696q-49 0 -49 51zM326 530h495v598z" />
<glyph unicode="5" horiz-adv-x="1239" d="M76.5 98.5q-6.5 13.5 1.5 38.5l49 123q16 47 63 27q166 -72 357 -72q160 0 235.5 62t75.5 186q0 119 -65.5 177t-214.5 58q-72 0 -133.5 -13t-101 -26.5t-58.5 -13.5q-9 0 -37 8l-90 29q-19 5 -25.5 15t-3.5 32q14 124 27.5 344t13.5 316q0 53 53 53h783q49 0 49 -49 v-133q0 -50 -49 -50h-605q-8 -168 -24 -344q112 41 256 41q258 0 381 -116.5t123 -327.5q0 -238 -148.5 -359.5t-423.5 -121.5q-271 0 -459 92q-23 11 -29.5 24.5z" />
<glyph unicode="6" horiz-adv-x="1329" d="M106 662q0 187 36.5 332.5t112 252.5t198.5 163t290 56q172 0 306 -55q24 -9 33 -21.5t3 -33.5l-34 -125q-12 -48 -64 -35q-139 41 -223 41q-193 0 -287.5 -117t-99.5 -329q45 78 140.5 131t232.5 53q121 0 214.5 -36t151.5 -100.5t87.5 -150t29.5 -188.5 q0 -231 -143.5 -375.5t-387.5 -144.5q-150 0 -265.5 50.5t-187 142t-107.5 215t-36 274.5zM403 494q0 -50 18.5 -98.5t53 -90t93 -67t130.5 -25.5q131 0 204 80t73 211q0 116 -69 190t-208 74q-142 0 -218.5 -77t-76.5 -197z" />
<glyph unicode="7" horiz-adv-x="1183" d="M80 1260v133q0 26 11.5 37.5t37.5 11.5h920q26 0 37.5 -11.5t11.5 -37.5v-115q0 -14 -4.5 -26.5t-9 -20t-13 -17.5t-10.5 -14q-83 -124 -156 -252t-144.5 -281.5t-117 -314.5t-53.5 -305q-2 -25 -13 -36t-38 -11h-189q-52 0 -49 47q26 281 177 618t319 545h-668 q-26 0 -37.5 12t-11.5 38z" />
<glyph unicode="8" horiz-adv-x="1312" d="M94 383q0 78 25.5 141t72.5 106.5t104 72t128 45.5q-133 40 -212 128.5t-79 213.5q0 179 135.5 277.5t386.5 98.5q252 0 388.5 -98.5t136.5 -277.5q0 -125 -79 -213.5t-212 -128.5q71 -17 128 -45.5t104 -72t72.5 -106.5t25.5 -141q0 -184 -146.5 -293.5t-417.5 -109.5 q-269 0 -415 109.5t-146 293.5zM371 401q0 -94 74.5 -150t209.5 -56q137 0 211 56t74 150q0 186 -285 254q-284 -68 -284 -254zM406 1079q0 -92 61 -148t188 -93q128 37 190 93t62 148q0 85 -63 131.5t-189 46.5q-125 0 -187 -46.5t-62 -131.5z" />
<glyph unicode="9" horiz-adv-x="1329" d="M96 942q0 233 143 377.5t388 144.5q150 0 265.5 -50.5t187 -143t107.5 -216t36 -274.5q0 -187 -35.5 -332t-110 -252t-197 -163t-288.5 -56q-162 0 -307 56q-25 10 -34 22.5t-3 34.5l35 123q8 25 21.5 33.5t41.5 -0.5q129 -39 223 -39q377 0 387 434 q-43 -71 -138.5 -122.5t-237.5 -51.5q-121 0 -214.5 36.5t-152 101t-88 150t-29.5 187.5zM352 940q0 -115 70 -190.5t209 -75.5q141 0 218 77.5t77 196.5q0 116 -76.5 198.5t-218.5 82.5q-131 0 -205 -79.5t-74 -209.5z" />
<glyph unicode=":" horiz-adv-x="585" d="M152 47v197q0 45 49 45h182q51 0 51 -45v-197q0 -47 -49 -47h-186q-25 0 -36 11t-11 36zM152 836v198q0 45 49 45h182q51 0 51 -47v-196q0 -45 -49 -45h-186q-25 0 -36 10.5t-11 34.5z" />
<glyph unicode=";" horiz-adv-x="585" d="M152 47v197q0 45 49 45h182q51 0 51 -45v-178q0 -32 -14 -60l-109 -239q-13 -27 -41 -27h-61q-18 0 -24.5 12t-0.5 31l70 217h-55q-25 0 -36 11t-11 36zM152 836v196q0 47 51 47h180q51 0 51 -47v-196q0 -45 -49 -45h-186q-25 0 -36 10.5t-11 34.5z" />
<glyph unicode="&#x3c;" d="M121 705q0 28 24 47l754 575q41 33 68 -4l90 -109q26 -36 -6 -65l-602 -444l602 -445q34 -27 6 -63l-90 -113q-27 -35 -66 -6l-756 579q-24 21 -24 48z" />
<glyph unicode="=" d="M143 436v117q0 25 10.5 36t34.5 11h850q45 0 45 -47v-117q0 -47 -45 -47h-850q-45 0 -45 47zM143 862v117q0 47 45 47h850q45 0 45 -47v-117q0 -47 -45 -47h-850q-24 0 -34.5 11t-10.5 36z" />
<glyph unicode="&#x3e;" d="M172 197q-28 39 6 63l602 445l-602 444q-33 24 -6 65l84 109q27 37 66 6l759 -577q25 -18 25 -45q0 -30 -25 -50l-759 -579q-41 -29 -66 6z" />
<glyph unicode="?" horiz-adv-x="1110" d="M68 1319q-13 38 30 59q172 86 428 86q237 0 363.5 -94t126.5 -262q0 -69 -19 -129t-49.5 -103.5t-67.5 -82t-74 -70.5t-67.5 -62t-49.5 -63t-19 -68v-47q0 -45 -49 -45h-156q-47 0 -47 47v45q0 55 33 109t80 100.5t94.5 95t80.5 109.5t33 125q0 162 -243 162 q-154 0 -316 -66q-47 -20 -63 27zM389 47v199q0 47 51 47h195q51 0 51 -47v-199q0 -47 -49 -47h-201q-47 0 -47 47z" />
<glyph unicode="@" horiz-adv-x="1910" d="M121 440q0 176 63 324.5t177.5 253.5t281 164t367.5 59q162 0 293.5 -32.5t222 -89.5t151.5 -137t89 -172.5t28 -197.5q0 -253 -120 -398.5t-339 -145.5h-123q-55 0 -57 34l-6 113q-98 -149 -295 -149q-166 0 -262 91.5t-96 258.5q0 112 33 207t98.5 168.5t172.5 115 t247 41.5q188 0 339 -69q34 -15 29 -48l-108 -626h43q156 0 226.5 104.5t70.5 304.5q0 107 -34.5 193.5t-107.5 154.5t-199 105t-298 37q-341 0 -539.5 -179t-198.5 -485q0 -281 168.5 -411.5t526.5 -130.5q122 0 234 17.5t185 43.5q28 8 37 -22l17 -66q5 -23 -21 -33 q-79 -28 -201.5 -49.5t-250.5 -21.5q-418 0 -631 164.5t-213 508.5zM725 442q0 -94 43.5 -145t130.5 -51q196 0 238 231l47 268q-65 25 -148 25q-148 0 -229.5 -91.5t-81.5 -236.5z" />
<glyph unicode="A" horiz-adv-x="1400" d="M45 57l477 1338q8 25 21 36t41 11h233q28 0 41 -11t21 -36l477 -1338q9 -25 -1.5 -41t-35.5 -16h-199q-25 0 -38 10.5t-21 34.5l-94 268h-533l-94 -268q-8 -24 -20.5 -34.5t-36.5 -10.5h-199q-26 0 -37 16t-2 41zM496 555h407l-198 604h-7z" />
<glyph unicode="B" horiz-adv-x="1409" d="M152 51v1342q0 26 11.5 37.5t39.5 11.5h516q282 0 414.5 -90t132.5 -287q0 -125 -56 -200t-141 -101q109 -29 175.5 -113t66.5 -233q0 -219 -144 -318.5t-434 -99.5h-530q-28 0 -39.5 11.5t-11.5 39.5zM434 229h285q172 0 240.5 45.5t68.5 159.5q0 108 -66.5 153.5 t-234.5 45.5h-293v-404zM434 848h283q148 0 209 43.5t61 144.5q0 96 -61.5 137t-212.5 41h-279v-366z" />
<glyph unicode="C" horiz-adv-x="1265" d="M98 721q0 367 173 556t485 189q119 0 220.5 -26.5t166.5 -65.5q23 -14 29.5 -27.5t-1.5 -35.5l-55 -125q-9 -24 -24 -30t-45 5q-108 51 -246 51q-208 0 -310 -120t-102 -371q0 -250 103.5 -370t318.5 -120q140 0 250 60q30 9 44 2.5t25 -31.5l58 -127q8 -23 1 -35 t-32 -26q-63 -41 -166.5 -69t-224.5 -28q-317 0 -492.5 188.5t-175.5 555.5z" />
<glyph unicode="D" horiz-adv-x="1406" d="M152 51v1342q0 26 11.5 37.5t37.5 11.5h395q178 0 308 -38t222.5 -121.5t138.5 -219.5t46 -328q0 -201 -46 -343.5t-138.5 -228t-222 -124.5t-306.5 -39h-395q-28 0 -39.5 11.5t-11.5 39.5zM438 254h150q88 0 152.5 13t119.5 45.5t89 87t52.5 138t18.5 197.5 q0 132 -27.5 221.5t-85 139.5t-134.5 71t-187 21h-148v-934z" />
<glyph unicode="E" horiz-adv-x="1157" d="M152 51v1342q0 26 11.5 37.5t37.5 11.5h807q51 0 51 -49v-146q0 -51 -51 -51h-574v-342h547q49 0 49 -51v-135q0 -52 -49 -52h-547v-370h582q51 0 51 -49v-146q0 -27 -12 -39t-39 -12h-813q-28 0 -39.5 11.5t-11.5 39.5z" />
<glyph unicode="F" horiz-adv-x="1130" d="M152 51v1342q0 26 11.5 37.5t39.5 11.5h801q26 0 37.5 -11t11.5 -36v-146q0 -51 -49 -51h-568v-373h549q49 0 49 -51v-139q0 -49 -49 -49h-549v-535q0 -27 -12 -39t-39 -12h-182q-28 0 -39.5 11.5t-11.5 39.5z" />
<glyph unicode="G" horiz-adv-x="1441" d="M98 723q0 377 184 560t535 183q128 0 236.5 -28.5t177.5 -69.5q24 -13 31.5 -26t-0.5 -37l-52 -127q-9 -24 -24 -30t-45 5q-138 59 -287 59q-245 0 -355 -115t-110 -374t107.5 -375.5t334.5 -116.5q133 0 220 41v363h-224q-51 0 -51 47v125q0 51 51 51h433q51 0 51 -51 v-655q0 -45 -45 -72q-173 -103 -467 -103q-340 0 -520.5 183.5t-180.5 562.5z" />
<glyph unicode="H" horiz-adv-x="1443" d="M152 51v1342q0 26 11.5 37.5t39.5 11.5h184q51 0 51 -49v-529h570v529q0 49 49 49h186q26 0 37.5 -11.5t11.5 -37.5v-1342q0 -28 -11.5 -39.5t-37.5 -11.5h-186q-49 0 -49 51v555h-570v-555q0 -27 -12 -39t-39 -12h-184q-28 0 -39.5 11.5t-11.5 39.5z" />
<glyph unicode="I" horiz-adv-x="612" d="M164 51v1342q0 26 11.5 37.5t37.5 11.5h186q52 0 52 -49v-1342q0 -51 -52 -51h-186q-26 0 -37.5 11.5t-11.5 39.5z" />
<glyph unicode="J" horiz-adv-x="1013" d="M41.5 83.5q-8.5 14.5 1.5 39.5l49 133q12 36 37 36q11 0 25 -7q102 -54 208 -54q226 0 226 261v901q0 26 11.5 37.5t37.5 11.5h186q49 0 49 -49v-926q0 -490 -466 -490q-99 0 -188 22.5t-144 55.5q-24 14 -32.5 28.5z" />
<glyph unicode="K" horiz-adv-x="1302" d="M152 51v1342q0 26 11.5 37.5t39.5 11.5h184q51 0 51 -49v-496l482 504q14 16 22 22.5t21.5 12.5t31.5 6h213q29 0 37.5 -21t-10.5 -41l-573 -606l585 -711q18 -22 10.5 -42.5t-36.5 -20.5h-217q-38 0 -74 45l-492 586v-580q0 -27 -12 -39t-39 -12h-184q-28 0 -39.5 11.5 t-11.5 39.5z" />
<glyph unicode="L" horiz-adv-x="1120" d="M152 51v1342q0 26 11.5 37.5t39.5 11.5h184q51 0 51 -49v-1135h551q51 0 51 -49v-158q0 -27 -12 -39t-39 -12h-786q-28 0 -39.5 11.5t-11.5 39.5z" />
<glyph unicode="M" horiz-adv-x="1675" d="M152 51v1342q0 26 11.5 37.5t39.5 11.5h174q42 0 59 -29l402 -659l401 659q17 29 57 29h177q51 0 51 -49v-1342q0 -27 -12 -39t-39 -12h-179q-26 0 -37.5 11.5t-11.5 39.5v918l-362 -594q-17 -27 -45 -27q-32 0 -45 27l-363 594v-918q0 -51 -49 -51h-178 q-28 0 -39.5 11.5t-11.5 39.5z" />
<glyph unicode="N" horiz-adv-x="1452" d="M152 51v1342q0 26 11.5 37.5t39.5 11.5h180q28 0 41.5 -7t24.5 -26l575 -930v914q0 26 11.5 37.5t37.5 11.5h178q49 0 49 -47v-1344q0 -51 -49 -51h-184q-25 0 -38.5 8t-24.5 27l-576 928v-912q0 -28 -11.5 -39.5t-37.5 -11.5h-176q-28 0 -39.5 11.5t-11.5 39.5z" />
<glyph unicode="O" horiz-adv-x="1470" d="M96 721q0 368 166.5 556.5t472.5 188.5t472.5 -188.5t166.5 -556.5t-167 -556t-474 -188q-304 0 -470.5 188t-166.5 556zM387 721q0 -494 348 -494q346 0 346 494q0 496 -346 496q-348 0 -348 -496z" />
<glyph unicode="P" horiz-adv-x="1353" d="M152 51v1342q0 49 49 49h444q309 0 458.5 -120.5t149.5 -391.5q0 -272 -149 -392t-459 -120h-209v-367q0 -51 -51 -51h-182q-27 0 -39 12t-12 39zM436 664h207q171 0 246.5 61t75.5 205t-75.5 205t-246.5 61h-207v-532z" />
<glyph unicode="Q" horiz-adv-x="1470" d="M96 725q0 366 166.5 553.5t472.5 187.5t474 -188q167 -186 167 -549q0 -261 -110 -441q-110 -179 -299 -243q88 -31 190 -31q18 0 45 4.5t37 4.5q23 0 33 -8.5t10 -30.5v-123q0 -30 -15.5 -43t-58.5 -13q-148 0 -290.5 48t-253.5 139q-274 21 -421 205t-147 528zM387 725 q0 -489 348 -489q346 0 346 489q0 492 -348 492q-346 0 -346 -492z" />
<glyph unicode="R" horiz-adv-x="1357" d="M152 51v1342q0 26 11.5 37.5t39.5 11.5h459q303 0 450.5 -116t147.5 -370q0 -182 -92.5 -291t-260.5 -145l348 -457q18 -22 9 -42.5t-39 -20.5h-195q-26 0 -41.5 10t-30.5 31l-331 440h-191v-430q0 -27 -12 -39t-39 -12h-182q-28 0 -39.5 11.5t-11.5 39.5zM436 719h219 q172 0 245 56.5t73 180.5q0 130 -73 185t-243 55h-221v-477z" />
<glyph unicode="S" horiz-adv-x="1187" d="M85.5 86q-7.5 14 0.5 37l49 131q12 36 39 36q10 0 23 -5q148 -62 325 -62q139 0 220 43t81 129q0 22 -5 41t-18 36.5t-25 30.5t-37 28t-41 24t-50 23.5t-52.5 22t-59.5 22.5q-59 22 -93.5 36t-85.5 39t-81.5 47t-66 56.5t-54.5 71.5t-32 88t-13 110q0 195 131.5 294 t388.5 99q237 0 391 -71q24 -11 31.5 -25t-0.5 -37l-47 -127q-9 -24 -23.5 -30.5t-42.5 2.5q-115 45 -283 45q-132 0 -196 -37.5t-64 -118.5q0 -52 37.5 -92t77 -59.5t133.5 -56.5q6 -2 9 -3.5t8.5 -3.5t9.5 -4q172 -70 236 -107q148 -88 187 -222q17 -57 17 -126 q0 -104 -41 -183.5t-115.5 -128t-173 -73t-219.5 -24.5q-137 0 -255.5 22t-188.5 57q-24 11 -31.5 25z" />
<glyph unicode="T" horiz-adv-x="1159" d="M55 1237v156q0 49 49 49h949q28 0 39.5 -11.5t11.5 -37.5v-156q0 -27 -12 -39t-39 -12h-330v-1135q0 -28 -11.5 -39.5t-39.5 -11.5h-185q-27 0 -39 12t-12 39v1135h-330q-51 0 -51 51z" />
<glyph unicode="U" horiz-adv-x="1421" d="M141 522v871q0 49 52 49h184q28 0 39.5 -11.5t11.5 -37.5v-846q0 -155 67.5 -234.5t215.5 -79.5q147 0 214.5 79.5t67.5 234.5v846q0 26 11.5 37.5t37.5 11.5h187q49 0 49 -49v-871q0 -268 -142.5 -407.5t-424.5 -139.5q-284 0 -427 139.5t-143 407.5z" />
<glyph unicode="V" horiz-adv-x="1382" d="M57 1384q-9 26 2 42t37 16h199q47 0 59 -45l246 -764l90 -338h4l88 338l246 764q12 45 59 45h201q25 0 35.5 -16t1.5 -42l-453 -1335q-9 -26 -24 -37.5t-41 -11.5h-232q-26 0 -40 11t-23 38z" />
<glyph unicode="W" horiz-adv-x="2131" d="M70 1384q-7 27 3.5 42.5t35.5 15.5h194q47 0 59 -45l183 -695l86 -366h4l92 371l188 690q6 24 20.5 34.5t43.5 10.5h174q29 0 43.5 -10.5t20.5 -34.5l186 -690l92 -373h6l86 368l182 695q12 45 60 45h194q25 0 34.5 -15t2.5 -43l-374 -1335q-8 -27 -22.5 -38t-43.5 -11 h-215q-50 0 -64 49l-192 658l-80 319h-6l-82 -319l-190 -658q-12 -49 -64 -49h-215q-28 0 -43 11.5t-23 37.5z" />
<glyph unicode="X" horiz-adv-x="1355" d="M56.5 19q-8.5 19 6.5 42l457 666l-446 655q-15 22 -6 41t34 19h205q42 0 70 -43l301 -453l301 453q25 43 72 43h202q25 0 33.5 -19t-6.5 -41l-449 -653l461 -668q15 -22 6.5 -41.5t-34.5 -19.5h-201q-26 0 -42 10.5t-32 34.5l-311 463l-313 -463q-28 -45 -74 -45h-201 q-25 0 -33.5 19z" />
<glyph unicode="Y" horiz-adv-x="1357" d="M52.5 1423q10.5 19 37.5 19h197q26 0 41 -11t26 -34l228 -434l96 -201h2l94 201l230 434q12 23 26 34t41 11h197q27 0 37.5 -19t-2.5 -41l-482 -852v-479q0 -51 -49 -51h-186q-27 0 -39 12t-12 39v479l-480 852q-13 22 -2.5 41z" />
<glyph unicode="Z" horiz-adv-x="1251" d="M106 51v150q0 34 31 82l656 903h-621q-49 0 -49 51v156q0 49 49 49h903q26 0 37.5 -11.5t11.5 -37.5v-150q0 -40 -28 -80l-654 -905h648q49 0 49 -49v-158q0 -28 -11.5 -39.5t-37.5 -11.5h-934q-50 0 -50 51z" />
<glyph unicode="[" horiz-adv-x="768" d="M211 -178v1575q0 24 11 34.5t36 10.5h377q25 0 35 -10t10 -35v-103q0 -49 -45 -49h-176v-1274h176q24 0 34.5 -11t10.5 -36v-102q0 -25 -10.5 -36t-34.5 -11h-377q-25 0 -36 11t-11 36z" />
<glyph unicode="\" horiz-adv-x="925" d="M21.5 1426q9.5 16 39.5 16h158q27 0 40.5 -10t23.5 -33l618 -1342q11 -25 1.5 -41t-38.5 -16h-157q-27 0 -41.5 11t-24.5 32l-616 1341q-13 26 -3.5 42z" />
<glyph unicode="]" horiz-adv-x="772" d="M90 -76q0 47 49 47h174v1274h-174q-49 0 -49 49v103q0 45 49 45h375q47 0 47 -45v-1575q0 -47 -47 -47h-375q-49 0 -49 47v102z" />
<glyph unicode="^" d="M107.5 714q-9.5 18 5.5 44l362 647q9 20 23 28.5t41 8.5h149q46 0 64 -37l362 -647q14 -26 4.5 -44t-37.5 -18h-149q-25 0 -39.5 9t-26.5 32l-254 459l-252 -459q-13 -23 -26.5 -32t-38.5 -9h-150q-28 0 -37.5 18z" />
<glyph unicode="_" horiz-adv-x="1054" d="M39 -123q0 47 47 47h883q47 0 47 -47v-59q0 -47 -47 -47h-883q-47 0 -47 47v59z" />
<glyph unicode="`" horiz-adv-x="727" d="M135.5 1443q5.5 19 28.5 19h207q39 0 55 -32l94 -181q8 -15 0 -27t-28 -12h-103q-36 0 -61 25l-183 176q-15 13 -9.5 32z" />
<glyph unicode="a" horiz-adv-x="1177" d="M72 295q0 64 18 114.5t49 87t81 64t106.5 44.5t133.5 28t152.5 15.5t173.5 6.5v47q0 96 -55.5 141.5t-177.5 45.5q-149 0 -307 -62q-11 -4 -21 -4q-28 0 -39 33l-36 113q-2 8 -2 16q0 26 30 41q79 34 189.5 56t220.5 22q236 0 349.5 -98t113.5 -291v-668q0 -47 -50 -47 h-151q-44 0 -47 39l-8 111q-108 -168 -373 -168q-161 0 -255.5 81.5t-94.5 231.5zM330 311q0 -65 47 -104t133 -39q135 0 205.5 67t70.5 173v88q-75 -2 -129 -6t-109.5 -11.5t-92.5 -21t-67 -33t-44 -48t-14 -65.5z" />
<glyph unicode="b" horiz-adv-x="1302" d="M143 47v1350q0 24 11 34.5t36 10.5h177q25 0 36 -10.5t11 -34.5v-463q43 81 137 125.5t205 44.5q218 0 337 -142.5t119 -420.5q0 -279 -119 -421.5t-337 -142.5q-114 0 -210 45.5t-140 129.5l-7 -113q-3 -39 -47 -39h-162q-25 0 -36 11t-11 36zM414 541q0 -344 264 -344 q131 0 194.5 81t63.5 263t-63.5 263t-194.5 81q-264 0 -264 -344z" />
<glyph unicode="c" horiz-adv-x="1052" d="M88 543q0 272 146.5 416.5t394.5 144.5q98 0 183 -20t132 -50q31 -17 31 -43q0 -9 -4 -20l-49 -111q-13 -28 -40 -28q-13 0 -28 6q-86 39 -192 39q-141 0 -219 -82.5t-78 -251.5q0 -170 77.5 -255t214.5 -85q118 0 211 49q15 6 27 6q26 0 37 -29l49 -112q4 -9 4 -18 q0 -26 -33 -46q-48 -30 -135.5 -53t-177.5 -23q-253 0 -402 146.5t-149 419.5z" />
<glyph unicode="d" horiz-adv-x="1302" d="M90 541q0 278 119.5 420.5t337.5 142.5q112 0 206.5 -44.5t135.5 -125.5v463q0 24 11 34.5t36 10.5h176q49 0 49 -45v-1350q0 -47 -49 -47h-160q-46 0 -49 39l-6 113q-43 -84 -139.5 -129.5t-210.5 -45.5q-218 0 -337.5 142.5t-119.5 421.5zM367 541q0 -182 64 -263 t194 -81q266 0 266 344t-266 344q-130 0 -194 -81t-64 -263z" />
<glyph unicode="e" horiz-adv-x="1191" d="M88 539q0 268 140.5 416.5t381.5 148.5q234 0 364 -140.5t130 -373.5v-101q0 -26 -11.5 -37.5t-37.5 -11.5h-699q15 -123 103 -193.5t229 -70.5q140 0 268 64q13 6 24 6q26 0 38 -35l35 -96q2 -8 2 -16q0 -28 -33 -44q-160 -80 -356 -80q-272 0 -425 149.5t-153 414.5z M350 612h508v13q0 130 -62.5 204t-181.5 74q-243 0 -264 -291z" />
<glyph unicode="f" horiz-adv-x="761" d="M41 897v115q0 47 45 47h111v86q0 162 83.5 238.5t247.5 76.5q93 0 158 -20q21 -7 30 -16t9 -31v-105q0 -23 -10 -35.5t-31 -9.5q-78 10 -96 10q-64 0 -93.5 -30t-29.5 -97v-67h207q25 0 36 -11t11 -36v-115q0 -25 -11 -36t-36 -11h-207v-807q0 -23 -11 -33t-36 -10h-172 q-49 0 -49 43v807h-111q-45 0 -45 47z" />
<glyph unicode="g" horiz-adv-x="1236" d="M92 608q0 127 31.5 223t89.5 154.5t134.5 87.5t170.5 29q105 0 194 -44t130 -116l6 96q3 41 49 41h156q25 0 36 -11t11 -36v-850q0 -210 -135.5 -321t-382.5 -111q-107 0 -209.5 16.5t-167.5 47.5q-32 15 -32 40q0 7 3 15l35 111q9 33 37 33q9 0 20 -3q144 -51 293 -51 q138 0 210.5 61.5t72.5 174.5v88q-40 -76 -126 -118t-190 -42q-198 0 -317 119t-119 366zM362 608q0 -293 234 -293q114 0 176 77.5t62 225.5q0 283 -238 283q-234 0 -234 -293z" />
<glyph unicode="h" horiz-adv-x="1257" d="M143 47v1350q0 24 11 34.5t36 10.5h177q25 0 36 -10.5t11 -34.5v-461q39 70 125 119t217 49q188 0 280 -104.5t92 -297.5v-655q0 -25 -11 -36t-36 -11h-176q-25 0 -36 11t-11 36v608q0 107 -47.5 161t-153.5 54q-116 0 -179.5 -68.5t-63.5 -178.5v-576q0 -25 -11 -36 t-36 -11h-177q-25 0 -36 11t-11 36z" />
<glyph unicode="i" horiz-adv-x="555" d="M141 47v985q0 25 11 36t36 11h179q25 0 36 -11t11 -36v-985q0 -25 -11 -36t-36 -11h-179q-25 0 -36 11t-11 36zM141 1247v144q0 25 10.5 36t34.5 11h183q24 0 34.5 -11t10.5 -36v-144q0 -25 -10.5 -36t-34.5 -11h-183q-24 0 -34.5 11t-10.5 36z" />
<glyph unicode="j" horiz-adv-x="587" d="M-35 -55q0 39 37 39h6q51 -7 80 -7q45 0 66.5 28t21.5 91v936q0 47 45 47h178q25 0 36 -11t11 -36v-962q0 -163 -67.5 -235.5t-220.5 -72.5q-92 0 -150 15q-22 7 -32.5 17t-10.5 32v119zM174 1247v144q0 25 11 36t36 11h180q48 0 48 -47v-144q0 -47 -48 -47h-180 q-25 0 -36 11t-11 36z" />
<glyph unicode="k" horiz-adv-x="1114" d="M143 47v1350q0 24 11 34.5t36 10.5h177q25 0 36 -10.5t11 -34.5v-670l346 320q13 12 19 16.5t20 10t30 5.5h207q25 0 33 -19.5t-12 -39.5l-457 -424l479 -537q18 -20 10.5 -39.5t-32.5 -19.5h-209q-42 0 -72 37l-362 409v-399q0 -25 -11 -36t-36 -11h-177q-25 0 -36 11 t-11 36z" />
<glyph unicode="l" horiz-adv-x="550" d="M141 47v1350q0 25 10 35t35 10h179q25 0 36 -10.5t11 -34.5v-1350q0 -25 -11 -36t-36 -11h-179q-24 0 -34.5 11t-10.5 36z" />
<glyph unicode="m" horiz-adv-x="1871" d="M135 47v985q0 47 49 47h162q46 0 49 -41l11 -106q38 70 120.5 121t204.5 51q239 0 311 -182q107 182 357 182q173 0 258.5 -102t85.5 -291v-664q0 -25 -11 -36t-36 -11h-176q-47 0 -47 47v617q0 104 -41 156t-136 52q-103 0 -163 -64.5t-60 -162.5v-598q0 -25 -11 -36 t-36 -11h-174q-47 0 -47 47v619q0 103 -39.5 154.5t-132.5 51.5q-106 0 -166.5 -66t-60.5 -173v-586q0 -47 -48 -47h-174q-49 0 -49 47z" />
<glyph unicode="n" horiz-adv-x="1245" d="M135 47v985q0 25 11 36t36 11h162q44 0 47 -41l10 -106q103 172 344 172q187 0 279 -104t92 -295v-658q0 -25 -11 -36t-36 -11h-176q-49 0 -49 47v608q0 108 -46 161.5t-153 53.5q-115 0 -177 -66t-62 -181v-576q0 -47 -48 -47h-176q-25 0 -36 11t-11 36z" />
<glyph unicode="o" horiz-adv-x="1243" d="M88 541q0 273 142.5 418t390.5 145t391 -145t143 -418t-143 -418.5t-391 -145.5t-390.5 145.5t-142.5 418.5zM365 541q0 -346 256 -346q258 0 258 346t-258 346q-256 0 -256 -346z" />
<glyph unicode="p" horiz-adv-x="1296" d="M135 -178v1210q0 47 49 47h160q46 0 49 -41l6 -110q43 81 141 128.5t210 47.5q218 0 337 -142t119 -421t-119 -421.5t-337 -142.5q-114 0 -207 42t-135 126v-323q0 -47 -48 -47h-176q-49 0 -49 47zM406 541q0 -174 68.5 -259t197.5 -85q131 0 194.5 81t63.5 263 t-63.5 263t-194.5 81q-129 0 -197.5 -85t-68.5 -259z" />
<glyph unicode="q" horiz-adv-x="1296" d="M90 541q0 278 119.5 420.5t337.5 142.5q112 0 209.5 -47.5t140.5 -128.5l6 110q3 41 49 41h160q49 0 49 -47v-1210q0 -47 -49 -47h-176q-25 0 -36 11t-11 36v321q-41 -83 -134 -124.5t-208 -41.5q-218 0 -337.5 142.5t-119.5 421.5zM367 541q0 -182 64 -263t194 -81 q266 0 266 344t-266 344q-130 0 -194 -81t-64 -263z" />
<glyph unicode="r" horiz-adv-x="827" d="M135 47v985q0 47 49 47h162q46 0 49 -43l11 -162q22 50 62 95.5t111 81.5t152 36q23 0 32 -8t9 -32v-191q0 -22 -9.5 -29.5t-29.5 -7.5q-9 0 -28.5 2t-36.5 2q-114 0 -187 -90.5t-73 -214.5v-471q0 -47 -48 -47h-176q-49 0 -49 47z" />
<glyph unicode="s" horiz-adv-x="976" d="M74 90l30 107q9 33 38 33q9 0 20 -3q126 -45 256 -45q111 0 163 26t52 89q0 56 -50 88.5t-169 73.5q-133 45 -179 70q-127 68 -151 197q-6 34 -6 73q0 150 105 227.5t304 77.5t334 -57q32 -15 32 -40q0 -8 -3 -16l-31 -102q-9 -34 -38 -34q-9 0 -19 3q-135 41 -234 41 q-96 0 -140 -25t-44 -81q0 -21 6 -38t22 -31.5t31 -25t45.5 -23.5t52.5 -21t64 -23q64 -23 106 -41.5t89.5 -48t74.5 -62.5t45.5 -81t18.5 -107q0 -314 -440 -314q-208 0 -355 60q-32 11 -32 38q0 7 2 15z" />
<glyph unicode="t" horiz-adv-x="780" d="M23 897v115q0 47 49 47h116v252q0 43 48 43h163q50 0 50 -43v-252h227q25 0 36 -11t11 -36v-115q0 -25 -11 -36t-36 -11h-225v-498q0 -89 28.5 -121t112.5 -32q14 0 86 10h5q33 0 36 -41l12 -115q1 -21 -8 -31t-31 -16q-68 -22 -172 -22q-180 0 -258 77.5t-78 262.5v526 h-112q-49 0 -49 47z" />
<glyph unicode="u" horiz-adv-x="1230" d="M123 369v663q0 47 49 47h176q24 0 34.5 -11t10.5 -36v-612q0 -104 43.5 -158.5t147.5 -54.5q110 0 174.5 65.5t64.5 176.5v583q0 47 47 47h179q45 0 45 -47v-985q0 -47 -45 -47h-164q-46 0 -49 39l-9 111q-99 -173 -333 -173q-371 0 -371 392z" />
<glyph unicode="v" horiz-adv-x="1110" d="M43 1026q-8 24 1.5 38.5t35.5 14.5h180q43 0 55 -45l154 -465l84 -299h6l84 299l152 465q12 45 55 45h184q24 0 33.5 -14.5t1.5 -38.5l-354 -987q-14 -39 -60 -39h-200q-46 0 -60 39z" />
<glyph unicode="w" horiz-adv-x="1742" d="M57 1026q-6 24 3.5 38.5t33.5 14.5h182q44 0 56 -45l147 -547l45 -213h4l54 213l166 551q11 41 53 41h141q40 0 51 -41l170 -551l51 -213h5l45 213l147 547q12 45 55 45h183q26 0 35.5 -14.5t1.5 -38.5l-293 -981q-12 -45 -60 -45h-182q-47 0 -61 47l-156 492l-60 223h-6 l-59 -223l-154 -492q-14 -47 -61 -47h-182q-48 0 -60 45z" />
<glyph unicode="x" horiz-adv-x="1105" d="M41 17q-7 17 10 40l359 490l-351 475q-15 22 -8.5 39.5t31.5 17.5h186q43 0 70 -39l217 -309l215 309q27 39 70 39h180q23 0 30 -17.5t-8 -39.5l-348 -475l361 -490q15 -20 7.5 -38.5t-30.5 -18.5h-190q-45 0 -68 37l-223 325l-225 -325q-26 -37 -70 -37h-184 q-24 0 -31 17z" />
<glyph unicode="y" horiz-adv-x="1101" d="M45 1026q-9 23 0 38t35 15h184q22 0 34.5 -11t20.5 -34l166 -479l90 -299h5l75 299l133 479q12 45 56 45h180q26 0 36.5 -14.5t2.5 -38.5l-311 -936q-30 -95 -58.5 -152.5t-73 -99.5t-107 -59t-155.5 -17q-109 0 -194 23q-23 7 -33.5 17t-7.5 30l14 117q5 37 38 37h5 t42.5 -6.5t74.5 -6.5q78 0 106 39q15 21 15 49q0 24 -12 54z" />
<glyph unicode="z" horiz-adv-x="1052" d="M90 47v98q0 35 21 60l518 651h-477q-48 0 -48 47v129q0 47 48 47h755q49 0 49 -47v-98q0 -39 -26 -68l-512 -645h493q25 0 36 -10.5t11 -34.5v-129q0 -25 -11 -36t-36 -11h-774q-25 0 -36 11t-11 36z" />
<glyph unicode="{" horiz-adv-x="768" d="M63 545v127q0 47 48 47h32q63 0 91 74t28 243q0 123 13.5 198t50 123.5t94.5 66.5t153 18h89q49 0 49 -45v-105q0 -47 -49 -47h-37q-73 0 -95 -54t-22 -192q0 -178 -43 -272.5t-129 -118.5q172 -44 172 -389q0 -138 22 -192t95 -54h37q49 0 49 -49v-102q0 -47 -49 -47 h-89q-95 0 -153 18.5t-94.5 67t-50 123.5t-13.5 198q0 169 -28 243.5t-91 74.5h-32q-48 0 -48 45z" />
<glyph unicode="|" horiz-adv-x="626" d="M195 -178v1614q0 47 49 47h141q45 0 45 -47v-1614q0 -25 -10.5 -36t-34.5 -11h-141q-49 0 -49 47z" />
<glyph unicode="}" horiz-adv-x="768" d="M59 -76q0 49 50 49h34q74 0 96.5 53.5t22.5 192.5q0 345 172 389q-86 24 -129 118.5t-43 272.5q0 139 -22.5 192.5t-96.5 53.5h-34q-50 0 -50 47v105q0 24 11.5 34.5t38.5 10.5h88q63 0 108 -8t81 -27t58.5 -48.5t37 -76.5t20.5 -106t6 -140q0 -168 27.5 -242.5 t89.5 -74.5h32q48 0 48 -47v-127q0 -45 -48 -45h-32q-62 0 -89.5 -75t-27.5 -245q0 -237 -64 -321t-247 -84h-88q-50 0 -50 47v102z" />
<glyph unicode="~" d="M131 668q9 109 70.5 177t158.5 68q55 0 99 -11.5t110 -39.5l101 -43q81 -35 129 -35q63 0 96 64q2 3 7 18.5t7 18.5q6 18 23 23t39 -5l94 -47q36 -16 31 -68q-12 -106 -73.5 -172.5t-158.5 -66.5q-54 0 -96 11t-111 40l-94 43q-85 37 -133 37q-64 0 -98 -66 q-11 -17 -15 -36q-6 -18 -22.5 -22.5t-38.5 5.5l-94 45q-34 15 -31 62z" />
<glyph unicode="&#xa1;" horiz-adv-x="628" d="M152 -225l51 819q3 45 47 45h127q46 0 49 -45l49 -819q3 -49 -47 -49h-227q-52 0 -49 49zM166 834v198q0 47 47 47h201q47 0 47 -47v-198q0 -48 -49 -48h-195q-51 0 -51 48z" />
<glyph unicode="&#xa2;" horiz-adv-x="1095" d="M90 539q0 245 126 390.5t343 170.5v137q0 25 11 36t36 11h88q47 0 47 -47v-139q145 -10 242 -66q22 -14 27.5 -26.5t-2.5 -34.5l-50 -111q-18 -44 -65 -24q-91 41 -211 41q-149 0 -232 -84t-83 -254t82 -253t235 -83q123 0 219 47q47 20 66 -25l49 -108q9 -24 3 -37 t-30 -27q-87 -57 -250 -69v-142q0 -47 -47 -47h-88q-25 0 -36 11t-11 36v142q-219 25 -344 167.5t-125 387.5z" />
<glyph unicode="&#xa3;" horiz-adv-x="1372" d="M88 688v72q0 39 39 39h129q-39 68 -59.5 123t-20.5 118q0 86 32 161t95.5 135t171 95t246.5 35q255 0 380.5 -104.5t125.5 -282.5q0 -94 -47 -94h-162q-23 0 -33 8.5t-8 26.5q0 10 2 26.5t2 28.5q0 71 -65 115.5t-185 44.5q-138 0 -208 -61t-70 -156q0 -34 12.5 -77 t22.5 -64.5t36 -77.5h385q37 0 37 -39v-72q0 -37 -37 -37h-331q43 -84 43 -153q0 -85 -48 -155t-137 -116q80 21 162 21q63 0 160.5 -16.5t156.5 -16.5q86 0 119.5 39.5t36.5 118.5q3 43 53 43h123q56 0 56 -60q0 -90 -14 -154.5t-48 -115t-95.5 -75.5t-150.5 -25 q-99 0 -235 27.5t-221 27.5q-164 0 -279 -49q-48 -20 -65 4l-91 133q-25 36 11 59q256 134 256 314q0 64 -45 149h-199q-39 0 -39 37z" />
<glyph unicode="&#xa4;" horiz-adv-x="1284" d="M182 168q-28 28 0 53l94 94q-83 106 -83 265q0 158 83 264l-94 96q-25 28 0 53l45 47q29 29 56 0l98 -100q106 72 260 72q156 0 262 -72l101 100q25 25 53 0l47 -47q26 -27 0 -53l-100 -98q86 -109 86 -262q0 -154 -86 -263l100 -96q26 -27 0 -53l-47 -47q-28 -25 -53 0 l-101 100q-100 -71 -262 -71q-160 0 -260 71l-98 -100q-31 -28 -56 0zM385 580q0 -116 69 -183t187 -67t187 67t69 183q0 117 -68.5 184t-187.5 67q-120 0 -188 -67t-68 -184z" />
<glyph unicode="&#xa5;" horiz-adv-x="1335" d="M45 1423.5q10 18.5 37 18.5h197q26 0 41 -11t26 -34l320 -625h6l319 625q11 24 25.5 34.5t42.5 10.5h194q27 0 37 -18.5t-2 -41.5l-336 -596h207q39 0 39 -36v-70q0 -39 -39 -39h-280l-68 -117v-41h348q39 0 39 -37v-69q0 -39 -39 -39h-348v-287q0 -28 -11.5 -39.5 t-39.5 -11.5h-187q-49 0 -49 51v287h-348q-37 0 -37 39v69q0 37 37 37h348v41l-67 117h-281q-37 0 -37 39v70q0 19 8.5 27.5t28.5 8.5h207l-336 596q-12 23 -2 41.5z" />
<glyph unicode="&#xa6;" horiz-adv-x="626" d="M195 -178v590q0 47 49 47h141q45 0 45 -47v-590q0 -25 -10.5 -36t-34.5 -11h-141q-49 0 -49 47zM195 846v590q0 47 49 47h141q45 0 45 -47v-590q0 -25 -10.5 -36t-34.5 -11h-141q-49 0 -49 47z" />
<glyph unicode="&#xa7;" horiz-adv-x="1406" d="M152 647q0 92 63.5 165.5t175.5 94.5q-83 54 -126.5 109t-43.5 137q0 159 117.5 235t372.5 76q224 0 395 -53q24 -8 32.5 -21.5t4.5 -37.5l-19 -107q-9 -43 -59 -31q-136 37 -309 37q-144 0 -203 -30.5t-59 -94.5q0 -27 15 -48.5t60 -45t78.5 -37t118.5 -44.5 q23 -9 35 -13q91 -32 149.5 -56t120.5 -58.5t96.5 -69t57 -82.5t22.5 -105q0 -172 -246 -243q191 -98 191 -248q0 -154 -142 -236t-415 -82q-127 0 -229.5 14.5t-153.5 32.5q-43 13 -37 62l16 106q6 44 60 31q135 -33 325 -33q304 0 304 123q0 25 -15.5 47t-35.5 37.5 t-58 32.5t-65 27t-75.5 26.5t-70.5 24.5q-213 78 -279 112q-117 62 -151 147q-17 44 -18 99zM416 657q0 -35 22 -62t67 -50t107 -46t150 -52q27 -8 41 -13q80 10 130 45.5t52 77.5q0 31 -19.5 58t-49 48t-85 44.5t-106.5 41t-135 44.5q-84 -10 -129 -46.5t-45 -89.5z" />
<glyph unicode="&#xa8;" horiz-adv-x="727" d="M39 1255v136q0 47 49 47h145q48 0 48 -47v-136q0 -45 -48 -45h-145q-49 0 -49 45zM444 1255v136q0 47 50 47h145q25 0 36 -11t11 -36v-136q0 -45 -47 -45h-145q-50 0 -50 45z" />
<glyph unicode="&#xa9;" horiz-adv-x="1777" d="M115 721q0 120 31.5 230.5t95.5 204t155 163t217.5 108.5t274.5 39t274 -39t217 -108.5t155.5 -163t96 -204t31.5 -230.5t-31.5 -230t-96 -203.5t-155.5 -163t-217 -108.5t-274 -39t-274.5 39t-217 108.5t-155 163t-96 203.5t-31.5 230zM260 721q0 -126 40 -235 t117 -192.5t198.5 -131t273.5 -47.5q122 0 224.5 31t176 86.5t125 131.5t76.5 166.5t25 190.5q0 127 -40 236.5t-116.5 192.5t-197.5 131t-273 48q-153 0 -274 -48t-198 -131t-117 -192.5t-40 -236.5zM477 729q0 211 120.5 320.5t320.5 109.5q72 0 144 -17.5t112 -41.5 q30 -16 18 -47l-39 -97q-15 -34 -49 -18q-80 37 -160 37q-110 0 -174.5 -63t-64.5 -183q0 -118 65 -182t172 -64q88 0 168 37q36 15 49 -18l39 -94q6 -20 2 -28t-20 -18q-40 -26 -115.5 -44.5t-149.5 -18.5q-198 0 -318 110t-120 320z" />
<glyph unicode="&#xaa;" horiz-adv-x="964" d="M53 1239q0 55 16 98t42 73t70 52t89 35t110 20.5t123 10.5t136 4v45q0 74 -41.5 106.5t-140.5 32.5q-115 0 -252 -53q-45 -18 -58 25l-32 92q-7 20 0 30.5t26 18.5q156 67 336 67q385 0 385 -307v-540q0 -48 -47 -48h-115q-45 0 -49 41l-6 62q-35 -46 -108.5 -80.5 t-190.5 -34.5q-134 0 -213.5 66t-79.5 184zM274 1253q0 -50 35.5 -78t104.5 -28q111 0 168 50.5t57 131.5v66q-185 0 -275 -30.5t-90 -111.5z" />
<glyph unicode="&#xab;" horiz-adv-x="1003" d="M68 580q0 12 6 22l170 283q9 18 21 25.5t36 7.5h150q24 0 31 -14t-5 -34l-174 -290l174 -289q12 -20 5 -34.5t-31 -14.5h-150q-24 0 -36 7t-21 25l-170 283q-6 10 -6 23zM485 578q0 9 9 24l168 283q17 33 59 33h149q24 0 31.5 -14t-4.5 -34l-174 -290l174 -289 q12 -22 5 -35.5t-32 -13.5h-149q-24 0 -36 7t-23 25l-168 283q-9 12 -9 21z" />
<glyph unicode="&#xac;" horiz-adv-x="1261" d="M111 647v133q0 47 47 47h903q25 0 36 -11t11 -36v-483q0 -25 -11 -36t-36 -11h-172q-49 0 -49 47v303h-682q-47 0 -47 47z" />
<glyph unicode="&#xad;" horiz-adv-x="815" d="M82 492v129q0 45 47 45h557q47 0 47 -45v-129q0 -46 -47 -46h-557q-47 0 -47 46z" />
<glyph unicode="&#xae;" horiz-adv-x="960" d="M117 1104q0 74 22 138.5t65.5 115t114.5 79.5t162 29q119 0 202.5 -51t121 -131t37.5 -180q0 -73 -22 -137t-65 -115.5t-113.5 -81t-160.5 -29.5q-91 0 -162 29.5t-114.5 81t-65.5 115.5t-22 137zM195 1104q0 -129 70 -210t216 -81q144 0 214.5 81t70.5 210t-70.5 211 t-214.5 82q-145 0 -215.5 -81.5t-70.5 -211.5zM332 928v362q0 21 20 21h144q84 0 131 -35t47 -105q0 -95 -92 -120l86 -121q6 -8 1.5 -15.5t-12.5 -7.5h-67q-15 0 -27 15l-78 116h-53v-110q0 -21 -20 -21h-60q-20 0 -20 21zM432 1114h53q50 0 69 12.5t19 44.5t-20 46t-64 14 h-57v-117z" />
<glyph unicode="&#xaf;" horiz-adv-x="727" d="M14 1266v69q0 45 43 45h611q24 0 34.5 -10.5t10.5 -34.5v-69q0 -25 -10 -35t-35 -10h-611q-43 0 -43 45z" />
<glyph unicode="&#xb0;" horiz-adv-x="774" d="M78 1165q0 130 86 212.5t223 82.5t224 -82.5t87 -212.5t-87 -213.5t-224 -83.5q-136 0 -222.5 83t-86.5 214zM225 1165q0 -72 45 -115.5t117 -43.5q73 0 118.5 44t45.5 115q0 70 -46 115t-118 45t-117 -44.5t-45 -115.5z" />
<glyph unicode="&#xb1;" d="M115 47v84q0 45 47 45h903q47 0 47 -45v-84q0 -47 -47 -47h-903q-25 0 -36 11t-11 36zM115 727v127q0 45 47 45h327v311q0 47 48 47h153q45 0 45 -47v-311h330q47 0 47 -45v-127q0 -45 -47 -45h-330v-315q0 -45 -45 -45h-153q-48 0 -48 45v315h-327q-47 0 -47 45z" />
<glyph unicode="&#xb2;" horiz-adv-x="880" d="M92 1630q0 118 82.5 191t253.5 73q91 0 158.5 -21.5t106 -60.5t57 -86t18.5 -104q0 -70 -34 -139t-92 -126.5t-115.5 -101t-123.5 -81.5h338q50 0 50 -48v-77q0 -48 -50 -48h-598q-49 0 -49 48v71q0 16 7.5 24.5t27.5 20.5q70 44 113.5 73.5t110 81t105 93.5t68 95 t29.5 102q0 112 -135 112q-131 0 -131 -100q0 -8 1 -25.5t1 -29.5q0 -39 -43 -39h-103q-38 0 -47 35q-6 27 -6 67z" />
<glyph unicode="&#xb3;" horiz-adv-x="880" d="M84 1071q-7 11 0 31l31 78q16 44 63 26q106 -45 215 -45q78 0 119 28t41 81t-35.5 76.5t-107.5 23.5h-103q-47 0 -47 49v62q0 49 47 49h101q131 0 131 98q0 48 -42 72t-116 24q-97 0 -197 -41q-46 -18 -61 23l-31 80q-12 36 25 51q116 57 295 57q154 0 246 -59t92 -178 q0 -69 -33.5 -117t-87.5 -72q137 -61 137 -204q0 -134 -90.5 -204.5t-255.5 -70.5q-95 0 -176.5 18t-128.5 42q-24 11 -31 22z" />
<glyph unicode="&#xb4;" horiz-adv-x="727" d="M208.5 1222q-7.5 12 0.5 27l92 181q16 32 55 32h207q24 0 28.5 -18t-11.5 -33l-181 -176q-25 -25 -61 -25h-102q-20 0 -27.5 12z" />
<glyph unicode="&#xb5;" horiz-adv-x="1236" d="M135 -178v1210q0 47 49 47h176q48 0 48 -47v-586q0 -110 64.5 -175.5t172.5 -65.5q105 0 148 54t43 159v614q0 47 49 47h176q25 0 36 -11t11 -36v-665q0 -195 -91 -293.5t-280 -98.5q-129 0 -210 49.5t-121 122.5l2 -327q0 -45 -50 -45h-174q-49 0 -49 47z" />
<glyph unicode="&#xb6;" horiz-adv-x="1122" d="M94 991q0 218 137.5 334.5t366.5 116.5h444q48 0 48 -45v-60q0 -47 -48 -47h-75q-61 0 -84 -23t-23 -85v-1162q0 -131 -54.5 -193.5t-180.5 -62.5q-83 0 -144 27q-26 11 -26 39l4 68q0 30 37 30q15 0 42.5 -5t41.5 -5q90 0 90 123v496h-66q-147 0 -260.5 49.5t-181.5 154 t-68 250.5z" />
<glyph unicode="&#xb7;" horiz-adv-x="507" d="M113 459v196q0 45 51 45h180q27 0 39 -10.5t12 -34.5v-196q0 -25 -11 -36t-36 -11h-188q-25 0 -36 11t-11 36z" />
<glyph unicode="&#xb8;" horiz-adv-x="727" d="M270 -231q0 26 31 26h61q99 0 99 64q0 92 -178 159h98q98 -19 169 -72.5t71 -127.5q0 -79 -58.5 -119.5t-167.5 -40.5q-66 0 -96 12q-29 6 -29 31v68z" />
<glyph unicode="&#xb9;" horiz-adv-x="880" d="M145 1653q-18 33 11 55l229 158q24 16 61 16h111q49 0 49 -47v-786q0 -48 -49 -48h-115q-47 0 -47 48v602l-137 -80q-45 -23 -65 10z" />
<glyph unicode="&#xba;" horiz-adv-x="1003" d="M63 1442q0 223 116.5 338.5t322.5 115.5t322 -115.5t116 -338.5q0 -221 -116.5 -337t-321.5 -116t-322 116t-117 337zM299 1442q0 -264 203 -264t203 264q0 268 -203 268t-203 -268z" />
<glyph unicode="&#xbb;" horiz-adv-x="1003" d="M101 255.5q-7 13.5 5 35.5l175 289l-175 290q-12 20 -4.5 34t31.5 14h150q24 0 36 -7.5t21 -25.5l170 -283q6 -10 6 -22q0 -13 -6 -23l-170 -283q-11 -18 -22 -25t-35 -7h-150q-25 0 -32 13.5zM521 255.5q-7 13.5 5 35.5l174 289l-174 290q-12 20 -5 34t30 14h149 q43 0 60 -33l170 -283q6 -10 6 -22q0 -13 -6 -23l-170 -283q-11 -18 -23.5 -25t-36.5 -7h-149q-23 0 -30 13.5z" />
<glyph unicode="&#xbc;" horiz-adv-x="2064" d="M145 1212q-19 34 11 56l229 157q25 17 61 17h111q49 0 49 -47v-787q0 -47 -49 -47h-115q-47 0 -47 47v602l-137 -80q-44 -23 -65 11zM539 47l819 1352q14 24 28.5 33.5t38.5 9.5h123q51 0 25 -45l-819 -1352q-14 -25 -28.5 -35t-39.5 -10h-121q-52 0 -26 47zM1229 223v84 q0 27 18 45l426 502q9 10 14 14.5t14.5 8.5t22.5 4h117q49 0 49 -47v-482h82q49 0 49 -47v-78q0 -47 -49 -47h-82v-133q0 -47 -49 -47h-112q-48 0 -48 47v133h-405q-47 0 -47 43zM1427 352h254v299z" />
<glyph unicode="&#xbd;" horiz-adv-x="2064" d="M145 1212q-19 34 11 56l229 157q25 17 61 17h111q49 0 49 -47v-787q0 -47 -49 -47h-115q-47 0 -47 47v602l-137 -80q-44 -23 -65 11zM465 47l819 1352q14 24 29 33.5t39 9.5h123q50 0 24 -45l-819 -1352q-14 -25 -28.5 -35t-39.5 -10h-120q-53 0 -27 47zM1284 629 q0 -41 6 -68q9 -35 47 -35h103q43 0 43 39q0 12 -1 30t-1 26q0 100 131 100q135 0 135 -113q0 -49 -29.5 -102t-68 -94.5t-105.5 -93.5t-110 -80.5t-113 -73.5q-20 -12 -27.5 -20.5t-7.5 -24.5v-72q0 -47 49 -47h598q49 0 49 47v78q0 47 -49 47h-338q66 38 123.5 81.5 t115.5 101.5t92 127t34 139q0 57 -18.5 104t-57 86t-106 60.5t-158.5 21.5q-171 0 -253.5 -73t-82.5 -191z" />
<glyph unicode="&#xbe;" horiz-adv-x="2064" d="M84 662l31 77q17 45 63 27q106 -45 215 -45q78 0 119 27.5t41 80.5t-35.5 77t-107.5 24h-103q-47 0 -47 49v61q0 50 47 50h101q131 0 131 98q0 48 -42 72t-116 24q-97 0 -197 -41q-46 -18 -61 23l-31 80q-12 36 25 51q116 57 295 57q154 0 246 -59t92 -178 q0 -69 -33.5 -117t-87.5 -72q137 -61 137 -205q0 -134 -90.5 -204t-255.5 -70q-96 0 -177.5 18t-127.5 41q-23 11 -30.5 22t-0.5 32zM571 47l820 1352q14 24 28.5 33.5t38.5 9.5h123q51 0 25 -45l-820 -1352q-14 -25 -28 -35t-39 -10h-121q-53 0 -27 47zM1229 223v84 q0 27 18 45l426 502q9 10 14 14.5t14.5 8.5t22.5 4h117q49 0 49 -47v-482h82q49 0 49 -47v-78q0 -47 -49 -47h-82v-133q0 -47 -49 -47h-112q-48 0 -48 47v133h-405q-47 0 -47 43zM1427 352h254v299z" />
<glyph unicode="&#xbf;" horiz-adv-x="1009" d="M84 35q0 -326 459 -326q113 0 220.5 22.5t182.5 59.5q23 11 30 23t-1 36l-49 127q-15 44 -64 25q-145 -59 -276 -59q-127 0 -175.5 31t-48.5 104q0 51 23 99.5t57 84.5t74 74.5t74 71t57 72t23 79.5v35q0 47 -49 47h-160q-49 0 -49 -47v-35q0 -39 -34 -79t-82 -79.5 t-96 -86.5t-82 -119.5t-34 -159.5zM397 834v198q0 47 47 47h201q47 0 47 -47v-201q0 -45 -49 -45h-197q-49 0 -49 48z" />
<glyph unicode="&#xc0;" horiz-adv-x="1400" d="M45 57l477 1338q8 25 21 36t41 11h233q28 0 41 -11t21 -36l477 -1338q9 -25 -1.5 -41t-35.5 -16h-199q-25 0 -38 10.5t-21 34.5l-94 268h-533l-94 -268q-8 -24 -20.5 -34.5t-36.5 -10.5h-199q-26 0 -37 16t-2 41zM393.5 1782q5.5 20 28.5 20h207q39 0 57 -35l92 -180 q8 -15 0.5 -27t-28.5 -12h-101q-36 0 -63 27l-183 174q-15 13 -9.5 33zM496 555h407l-198 604h-7z" />
<glyph unicode="&#xc1;" horiz-adv-x="1400" d="M45 57l477 1338q8 25 21 36t41 11h233q28 0 41 -11t21 -36l477 -1338q9 -25 -1.5 -41t-35.5 -16h-199q-25 0 -38 10.5t-21 34.5l-94 268h-533l-94 -268q-8 -24 -20.5 -34.5t-36.5 -10.5h-199q-26 0 -37 16t-2 41zM496 555h407l-198 604h-7zM622.5 1560q-7.5 12 0.5 27 l92 180q17 35 57 35h207q24 0 28 -19t-12 -34l-180 -174q-27 -27 -63 -27h-101q-21 0 -28.5 12z" />
<glyph unicode="&#xc2;" horiz-adv-x="1400" d="M45 57l477 1338q8 25 21 36t41 11h233q28 0 41 -11t21 -36l477 -1338q9 -25 -1.5 -41t-35.5 -16h-199q-25 0 -38 10.5t-21 34.5l-94 268h-533l-94 -268q-8 -24 -20.5 -34.5t-36.5 -10.5h-199q-26 0 -37 16t-2 41zM384.5 1564q-5.5 16 8.5 29l187 195q17 17 29 23t36 6 h111q26 0 38 -6t27 -23l189 -195q14 -13 8.5 -29t-27.5 -16h-96q-28 0 -57 25l-136 106l-139 -106q-33 -25 -57 -25h-94q-22 0 -27.5 16zM496 555h407l-198 604h-7z" />
<glyph unicode="&#xc3;" horiz-adv-x="1400" d="M45 57l477 1338q8 25 21 36t41 11h233q28 0 41 -11t21 -36l477 -1338q9 -25 -1.5 -41t-35.5 -16h-199q-25 0 -38 10.5t-21 34.5l-94 268h-533l-94 -268q-8 -24 -20.5 -34.5t-36.5 -10.5h-199q-26 0 -37 16t-2 41zM336 1604q0 78 41.5 125t124.5 47q65 0 174 -37l78 -29 q73 -27 108 -27q44 0 49 39l2 17q3 19 14 26t34 7h61q24 0 34.5 -14.5t10.5 -49.5q0 -77 -40.5 -123.5t-121.5 -46.5q-83 0 -178 37l-72 27q-70 26 -114 26q-46 0 -49 -33l-3 -16q-5 -35 -47 -35h-63q-23 0 -33 13t-10 47zM496 555h407l-198 604h-7z" />
<glyph unicode="&#xc4;" horiz-adv-x="1400" d="M45 57l477 1338q8 25 21 36t41 11h233q28 0 41 -11t21 -36l477 -1338q9 -25 -1.5 -41t-35.5 -16h-199q-25 0 -38 10.5t-21 34.5l-94 268h-533l-94 -268q-8 -24 -20.5 -34.5t-36.5 -10.5h-199q-26 0 -37 16t-2 41zM371 1595v129q0 48 45 48h153q49 0 49 -48v-129 q0 -47 -49 -47h-153q-45 0 -45 47zM496 555h407l-198 604h-7zM786 1595v129q0 25 10.5 36.5t34.5 11.5h154q47 0 47 -48v-129q0 -25 -11 -36t-36 -11h-154q-24 0 -34.5 11t-10.5 36z" />
<glyph unicode="&#xc5;" horiz-adv-x="1400" d="M45 57l477 1338q0 2 2 4q-57 57 -57 149q0 96 65 155.5t170 59.5q104 0 170 -59.5t66 -155.5q0 -93 -61 -151l2 -2l477 -1338q9 -25 -1.5 -41t-35.5 -16h-199q-25 0 -38 10.5t-21 34.5l-94 268h-533l-94 -268q-8 -24 -20.5 -34.5t-36.5 -10.5h-199q-26 0 -37 16t-2 41z M496 555h407l-198 604h-7zM588 1548q0 -49 30.5 -76.5t83.5 -27.5q51 0 81 27.5t30 76.5q0 47 -30 76t-81 29q-52 0 -83 -28.5t-31 -76.5z" />
<glyph unicode="&#xc6;" horiz-adv-x="1828" d="M18 17q-10 17 0 40l629 1338q11 26 24.5 36.5t41.5 10.5h964q26 0 37.5 -11.5t11.5 -37.5v-148q0 -49 -49 -49h-520v-342h496q47 0 47 -51v-135q0 -52 -47 -52h-496v-368h531q49 0 49 -49v-148q0 -51 -49 -51h-764q-50 0 -50 51v250h-432l-123 -256q-11 -24 -24.5 -34.5 t-36.5 -10.5h-205q-25 0 -35 17zM524 543h348v655h-45z" />
<glyph unicode="&#xc7;" horiz-adv-x="1265" d="M98 721q0 367 173 556t485 189q119 0 220.5 -26.5t166.5 -65.5q23 -14 29.5 -27.5t-1.5 -35.5l-55 -125q-9 -24 -24 -30t-45 5q-108 51 -246 51q-208 0 -310 -120t-102 -371q0 -250 103.5 -370t318.5 -120q140 0 250 60q30 9 44 2.5t25 -31.5l58 -127q8 -23 1 -35 t-32 -26q-62 -40 -165 -68t-224 -29q58 -31 92.5 -76t34.5 -98q0 -80 -60 -124t-173 -44q-66 0 -101 13q-29 10 -29 33v71q0 29 31 29h64q50 0 75 18t25 49q0 83 -119 144q-244 42 -377 226.5t-133 502.5z" />
<glyph unicode="&#xc8;" horiz-adv-x="1157" d="M152 51v1342q0 26 11.5 37.5t37.5 11.5h807q51 0 51 -49v-146q0 -51 -51 -51h-574v-342h547q49 0 49 -51v-135q0 -52 -49 -52h-547v-370h582q51 0 51 -49v-146q0 -27 -12 -39t-39 -12h-813q-28 0 -39.5 11.5t-11.5 39.5zM367 1782q5 20 28 20h207q40 0 57 -35l93 -180 q8 -15 0 -27t-29 -12h-100q-37 0 -64 27l-182 174q-15 13 -10 33z" />
<glyph unicode="&#xc9;" horiz-adv-x="1157" d="M152 51v1342q0 26 11.5 37.5t37.5 11.5h807q51 0 51 -49v-146q0 -51 -51 -51h-574v-342h547q49 0 49 -51v-135q0 -52 -49 -52h-547v-370h582q51 0 51 -49v-146q0 -27 -12 -39t-39 -12h-813q-28 0 -39.5 11.5t-11.5 39.5zM501.5 1560q-7.5 12 0.5 27l92 180q18 35 57 35 h207q24 0 28 -19t-12 -34l-180 -174q-27 -27 -63 -27h-101q-21 0 -28.5 12z" />
<glyph unicode="&#xca;" horiz-adv-x="1157" d="M152 51v1342q0 26 11.5 37.5t37.5 11.5h807q51 0 51 -49v-146q0 -51 -51 -51h-574v-342h547q49 0 49 -51v-135q0 -52 -49 -52h-547v-370h582q51 0 51 -49v-146q0 -27 -12 -39t-39 -12h-813q-28 0 -39.5 11.5t-11.5 39.5zM296.5 1564q-5.5 16 8.5 29l187 195q17 17 29 23 t36 6h111q26 0 38 -6t27 -23l189 -195q14 -13 8.5 -29t-27.5 -16h-96q-28 0 -57 25l-136 106l-139 -106q-33 -25 -57 -25h-94q-22 0 -27.5 16z" />
<glyph unicode="&#xcb;" horiz-adv-x="1157" d="M152 51v1342q0 26 11.5 37.5t37.5 11.5h807q51 0 51 -49v-146q0 -51 -51 -51h-574v-342h547q49 0 49 -51v-135q0 -52 -49 -52h-547v-370h582q51 0 51 -49v-146q0 -27 -12 -39t-39 -12h-813q-28 0 -39.5 11.5t-11.5 39.5zM281 1595v129q0 48 45 48h153q49 0 49 -48v-129 q0 -47 -49 -47h-153q-45 0 -45 47zM696 1595v129q0 25 10.5 36.5t34.5 11.5h154q47 0 47 -48v-129q0 -25 -11 -36t-36 -11h-154q-24 0 -34.5 11t-10.5 36z" />
<glyph unicode="&#xcc;" horiz-adv-x="612" d="M17 1782q5 20 28 20h207q40 0 57 -35l92 -180q8 -15 0.5 -27t-28.5 -12h-101q-36 0 -63 27l-182 174q-15 13 -10 33zM164 51v1342q0 26 11.5 37.5t37.5 11.5h186q52 0 52 -49v-1342q0 -51 -52 -51h-186q-26 0 -37.5 11.5t-11.5 39.5z" />
<glyph unicode="&#xcd;" horiz-adv-x="612" d="M164 51v1342q0 26 11.5 37.5t37.5 11.5h186q52 0 52 -49v-1342q0 -51 -52 -51h-186q-26 0 -37.5 11.5t-11.5 39.5zM219 1560q-8 12 0 27l92 180q17 35 58 35h206q24 0 28.5 -19t-11.5 -34l-180 -174q-27 -27 -64 -27h-100q-21 0 -29 12z" />
<glyph unicode="&#xce;" horiz-adv-x="612" d="M-13 1564q-5 16 9 29l186 195q17 17 29.5 23t36.5 6h110q26 0 38.5 -6t27.5 -23l188 -195q9 -9 10.5 -19.5t-6 -18t-22.5 -7.5h-96q-29 0 -58 25l-135 106l-139 -106q-33 -25 -57 -25h-95q-22 0 -27 16zM164 51v1342q0 26 11.5 37.5t37.5 11.5h186q52 0 52 -49v-1342 q0 -51 -52 -51h-186q-26 0 -37.5 11.5t-11.5 39.5z" />
<glyph unicode="&#xcf;" horiz-adv-x="612" d="M-27 1595v129q0 48 45 48h154q49 0 49 -48v-129q0 -47 -49 -47h-154q-45 0 -45 47zM164 51v1342q0 26 11.5 37.5t37.5 11.5h186q52 0 52 -49v-1342q0 -51 -52 -51h-186q-26 0 -37.5 11.5t-11.5 39.5zM389 1595v129q0 25 10.5 36.5t34.5 11.5h154q47 0 47 -48v-129 q0 -25 -11 -36t-36 -11h-154q-24 0 -34.5 11t-10.5 36z" />
<glyph unicode="&#xd0;" horiz-adv-x="1411" d="M27 680v86q0 39 36 39h93v588q0 26 11.5 37.5t37.5 11.5h395q178 0 308 -38.5t222.5 -123t138.5 -223.5t46 -336q0 -196 -45.5 -335t-138 -224t-222 -123.5t-307.5 -38.5h-395q-28 0 -39.5 11.5t-11.5 39.5v592h-93q-36 0 -36 37zM442 254h150q110 0 186 21t133.5 73 t85 144t27.5 229q0 138 -27.5 230t-85 143.5t-134 72.5t-187.5 21h-148v-383h250q37 0 37 -39v-86q0 -37 -37 -37h-250v-389z" />
<glyph unicode="&#xd1;" horiz-adv-x="1452" d="M152 51v1342q0 26 11.5 37.5t39.5 11.5h180q28 0 41.5 -7t24.5 -26l575 -930v914q0 26 11.5 37.5t37.5 11.5h178q49 0 49 -47v-1344q0 -51 -49 -51h-184q-25 0 -38.5 8t-24.5 27l-576 928v-912q0 -28 -11.5 -39.5t-37.5 -11.5h-176q-28 0 -39.5 11.5t-11.5 39.5z M360 1604q0 78 41.5 125t124.5 47q65 0 174 -37l78 -29q73 -27 109 -27q44 0 49 39l2 17q3 19 13.5 26t33.5 7h62q24 0 34.5 -14.5t10.5 -49.5q0 -77 -40.5 -123.5t-121.5 -46.5q-83 0 -178 37l-72 27q-70 26 -115 26q-46 0 -49 -33l-2 -16q-5 -35 -47 -35h-64q-23 0 -33 13 t-10 47z" />
<glyph unicode="&#xd2;" horiz-adv-x="1470" d="M96 721q0 368 166.5 556.5t472.5 188.5t472.5 -188.5t166.5 -556.5t-167 -556t-474 -188q-304 0 -470.5 188t-166.5 556zM387 721q0 -494 348 -494q346 0 346 494q0 496 -346 496q-348 0 -348 -496zM449 1782q5 20 28 20h207q40 0 57 -35l93 -180q8 -15 0 -27t-29 -12 h-100q-37 0 -64 27l-182 174q-15 13 -10 33z" />
<glyph unicode="&#xd3;" horiz-adv-x="1470" d="M96 721q0 368 166.5 556.5t472.5 188.5t472.5 -188.5t166.5 -556.5t-167 -556t-474 -188q-304 0 -470.5 188t-166.5 556zM387 721q0 -494 348 -494q346 0 346 494q0 496 -346 496q-348 0 -348 -496zM647 1560q-8 12 0 27l92 180q17 35 58 35h207q24 0 28 -19t-12 -34 l-180 -174q-27 -27 -64 -27h-100q-21 0 -29 12z" />
<glyph unicode="&#xd4;" horiz-adv-x="1470" d="M96 721q0 368 166.5 556.5t472.5 188.5t472.5 -188.5t166.5 -556.5t-167 -556t-474 -188q-304 0 -470.5 188t-166.5 556zM387 721q0 -494 348 -494q346 0 346 494q0 496 -346 496q-348 0 -348 -496zM417 1564q-5 16 9 29l186 195q17 17 29.5 23t36.5 6h110q26 0 38.5 -6 t27.5 -23l188 -195q9 -9 10.5 -19.5t-6 -18t-22.5 -7.5h-96q-29 0 -58 25l-135 106l-139 -106q-33 -25 -57 -25h-95q-22 0 -27 16z" />
<glyph unicode="&#xd5;" horiz-adv-x="1470" d="M96 721q0 368 166.5 556.5t472.5 188.5t472.5 -188.5t166.5 -556.5t-167 -556t-474 -188q-304 0 -470.5 188t-166.5 556zM369 1604q0 78 41.5 125t124.5 47q65 0 174 -37l77 -29q73 -27 109 -27q44 0 49 39l2 17q3 19 13.5 26t33.5 7h62q24 0 34.5 -14.5t10.5 -49.5 q0 -77 -40.5 -123.5t-121.5 -46.5q-83 0 -178 37l-72 27q-70 26 -115 26q-46 0 -49 -33l-2 -16q-5 -35 -47 -35h-63q-23 0 -33 13t-10 47zM387 721q0 -494 348 -494q346 0 346 494q0 496 -346 496q-348 0 -348 -496z" />
<glyph unicode="&#xd6;" horiz-adv-x="1470" d="M96 721q0 368 166.5 556.5t472.5 188.5t472.5 -188.5t166.5 -556.5t-167 -556t-474 -188q-304 0 -470.5 188t-166.5 556zM387 721q0 -494 348 -494q346 0 346 494q0 496 -346 496q-348 0 -348 -496zM403 1595v129q0 48 46 48h153q49 0 49 -48v-129q0 -47 -49 -47h-153 q-46 0 -46 47zM819 1595v129q0 25 10.5 36.5t34.5 11.5h154q47 0 47 -48v-129q0 -25 -11 -36t-36 -11h-154q-24 0 -34.5 11t-10.5 36z" />
<glyph unicode="&#xd7;" d="M168 360q-33 33 0 66l281 281l-281 278q-35 30 0 68l98 98q35 33 68 0l278 -281l281 281q33 33 65 0l101 -98q34 -32 -2 -68l-281 -278l281 -281q32 -34 0 -66l-99 -100q-32 -32 -65 2l-281 279l-278 -281q-35 -35 -68 0z" />
<glyph unicode="&#xd8;" horiz-adv-x="1474" d="M98 721q0 368 166.5 556.5t472.5 188.5q240 0 398 -129l77 86q18 20 31.5 22.5t34.5 -11.5l63 -50q38 -26 9 -65l-95 -111q121 -188 121 -487q0 -368 -166.5 -556t-472.5 -188q-252 0 -399 129l-82 -90q-17 -19 -31.5 -21t-34.5 13l-63 51q-35 25 -6 62l96 112 q-119 183 -119 488zM391 721q0 -150 31 -232l547 635q-90 93 -232 93q-346 0 -346 -496zM502 317q49 -47 102.5 -68.5t132.5 -21.5q348 0 348 494q0 133 -32 233z" />
<glyph unicode="&#xd9;" horiz-adv-x="1421" d="M141 522v871q0 49 52 49h184q28 0 39.5 -11.5t11.5 -37.5v-846q0 -155 67.5 -234.5t215.5 -79.5q147 0 214.5 79.5t67.5 234.5v846q0 26 11.5 37.5t37.5 11.5h187q49 0 49 -49v-871q0 -268 -142.5 -407.5t-424.5 -139.5q-284 0 -427 139.5t-143 407.5zM445 1782 q5 20 28 20h207q40 0 57 -35l92 -180q8 -15 0.5 -27t-28.5 -12h-101q-36 0 -63 27l-182 174q-15 13 -10 33z" />
<glyph unicode="&#xda;" horiz-adv-x="1421" d="M141 522v871q0 49 52 49h184q28 0 39.5 -11.5t11.5 -37.5v-846q0 -155 67.5 -234.5t215.5 -79.5q147 0 214.5 79.5t67.5 234.5v846q0 26 11.5 37.5t37.5 11.5h187q49 0 49 -49v-871q0 -268 -142.5 -407.5t-424.5 -139.5q-284 0 -427 139.5t-143 407.5zM589.5 1560 q-7.5 12 0.5 27l92 180q18 35 57 35h207q24 0 28.5 -19t-11.5 -34l-181 -174q-27 -27 -63 -27h-101q-21 0 -28.5 12z" />
<glyph unicode="&#xdb;" horiz-adv-x="1421" d="M141 522v871q0 49 52 49h184q28 0 39.5 -11.5t11.5 -37.5v-846q0 -155 67.5 -234.5t215.5 -79.5q147 0 214.5 79.5t67.5 234.5v846q0 26 11.5 37.5t37.5 11.5h187q49 0 49 -49v-871q0 -268 -142.5 -407.5t-424.5 -139.5q-284 0 -427 139.5t-143 407.5zM392.5 1564 q-5.5 16 8.5 29l187 195q17 17 29 23t36 6h111q26 0 38 -6t27 -23l189 -195q14 -13 8.5 -29t-27.5 -16h-96q-28 0 -57 25l-135 106l-140 -106q-33 -25 -57 -25h-94q-22 0 -27.5 16z" />
<glyph unicode="&#xdc;" horiz-adv-x="1421" d="M141 522v871q0 49 52 49h184q28 0 39.5 -11.5t11.5 -37.5v-846q0 -155 67.5 -234.5t215.5 -79.5q147 0 214.5 79.5t67.5 234.5v846q0 26 11.5 37.5t37.5 11.5h187q49 0 49 -49v-871q0 -268 -142.5 -407.5t-424.5 -139.5q-284 0 -427 139.5t-143 407.5zM379 1595v129 q0 48 45 48h154q49 0 49 -48v-129q0 -47 -49 -47h-154q-45 0 -45 47zM795 1595v129q0 25 10.5 36.5t34.5 11.5h153q47 0 47 -48v-129q0 -25 -11 -36t-36 -11h-153q-24 0 -34.5 11t-10.5 36z" />
<glyph unicode="&#xdd;" horiz-adv-x="1357" d="M52.5 1423q10.5 19 37.5 19h197q26 0 41 -11t26 -34l228 -434l96 -201h2l94 201l230 434q12 23 26 34t41 11h197q27 0 37.5 -19t-2.5 -41l-482 -852v-479q0 -51 -49 -51h-186q-27 0 -39 12t-12 39v479l-480 852q-13 22 -2.5 41zM589.5 1560q-7.5 12 0.5 27l92 180 q18 35 57 35h207q24 0 28.5 -19t-11.5 -34l-181 -174q-27 -27 -63 -27h-101q-21 0 -28.5 12z" />
<glyph unicode="&#xde;" horiz-adv-x="1318" d="M152 51v1342q0 26 11.5 37.5t39.5 11.5h182q51 0 51 -49v-119h193q302 0 446 -114.5t144 -381.5q0 -265 -144.5 -380t-445.5 -115h-193v-232q0 -27 -12 -39t-39 -12h-184q-26 0 -37.5 11.5t-11.5 39.5zM436 524h191q164 0 235.5 58t71.5 198q0 137 -72.5 194.5 t-234.5 57.5h-191v-508z" />
<glyph unicode="&#xdf;" horiz-adv-x="1343" d="M143 43v1018q0 206 136.5 305.5t386.5 99.5q223 0 343.5 -87t120.5 -232q0 -63 -27 -114t-65 -82.5t-76 -56t-65 -46t-27 -41.5q0 -18 29 -38.5t72 -40.5t94 -54.5t94 -76t72 -110.5t29 -153q0 -170 -103 -260t-311 -90q-164 0 -221 20q-41 13 -41 37v113q0 44 47 41 q61 -7 100 -7q125 0 193.5 45.5t68.5 135.5q0 54 -28.5 101t-71 78t-92 63t-92 58t-71 61t-28.5 73q0 33 26.5 63t64 54.5t75 50t64 60t26.5 73.5q0 66 -53 111t-168 45q-117 0 -180.5 -56t-63.5 -164v-997q0 -22 -10.5 -32.5t-36.5 -10.5h-164q-47 0 -47 43z" />
<glyph unicode="&#xe0;" horiz-adv-x="1177" d="M72 295q0 64 18 114.5t49 87t81 64t106.5 44.5t133.5 28t152.5 15.5t173.5 6.5v47q0 96 -55.5 141.5t-177.5 45.5q-149 0 -307 -62q-45 -15 -60 29l-36 113q-11 38 28 57q79 34 189.5 56t220.5 22q236 0 349.5 -98t113.5 -291v-668q0 -47 -50 -47h-151q-44 0 -47 39 l-8 111q-108 -168 -373 -168q-161 0 -255.5 81.5t-94.5 231.5zM324 1443q5 19 28 19h207q39 0 55 -32l95 -181q8 -15 -0.5 -27t-28.5 -12h-102q-37 0 -62 25l-182 176q-15 13 -10 32zM330 311q0 -65 47 -104t133 -39q135 0 205.5 67t70.5 173v88q-75 -2 -129 -6 t-109.5 -11.5t-92.5 -21t-67 -33t-44 -48t-14 -65.5z" />
<glyph unicode="&#xe1;" horiz-adv-x="1177" d="M72 295q0 64 18 114.5t49 87t81 64t106.5 44.5t133.5 28t152.5 15.5t173.5 6.5v47q0 96 -55.5 141.5t-177.5 45.5q-149 0 -307 -62q-45 -15 -60 29l-36 113q-11 38 28 57q79 34 189.5 56t220.5 22q236 0 349.5 -98t113.5 -291v-668q0 -47 -50 -47h-151q-44 0 -47 39 l-8 111q-108 -168 -373 -168q-161 0 -255.5 81.5t-94.5 231.5zM330 311q0 -65 47 -104t133 -39q135 0 205.5 67t70.5 173v88q-75 -2 -129 -6t-109.5 -11.5t-92.5 -21t-67 -33t-44 -48t-14 -65.5zM466.5 1222q-7.5 12 0.5 27l92 181q16 32 55 32h207q24 0 28.5 -18t-11.5 -33 l-181 -176q-25 -25 -61 -25h-102q-20 0 -27.5 12z" />
<glyph unicode="&#xe2;" horiz-adv-x="1177" d="M72 295q0 64 18 114.5t49 87t81 64t106.5 44.5t133.5 28t152.5 15.5t173.5 6.5v47q0 96 -55.5 141.5t-177.5 45.5q-149 0 -307 -62q-45 -15 -60 29l-36 113q-11 38 28 57q79 34 189.5 56t220.5 22q236 0 349.5 -98t113.5 -291v-668q0 -47 -50 -47h-151q-44 0 -47 39 l-8 111q-108 -168 -373 -168q-161 0 -255.5 81.5t-94.5 231.5zM268 1225q-6 15 8 30l189 199q15 16 27.5 22.5t37.5 6.5h111q26 0 38.5 -6t27.5 -23l188 -199q14 -15 9 -30t-27 -15h-95q-23 0 -55 25l-139 111l-142 -111q-32 -25 -55 -25h-94q-23 0 -29 15zM330 311 q0 -65 47 -104t133 -39q135 0 205.5 67t70.5 173v88q-75 -2 -129 -6t-109.5 -11.5t-92.5 -21t-67 -33t-44 -48t-14 -65.5z" />
<glyph unicode="&#xe3;" horiz-adv-x="1177" d="M72 295q0 64 18 114.5t49 87t81 64t106.5 44.5t133.5 28t152.5 15.5t173.5 6.5v47q0 96 -55.5 141.5t-177.5 45.5q-149 0 -307 -62q-45 -15 -60 29l-36 113q-11 38 28 57q79 34 189.5 56t220.5 22q236 0 349.5 -98t113.5 -291v-668q0 -47 -50 -47h-151q-44 0 -47 39 l-8 111q-108 -168 -373 -168q-161 0 -255.5 81.5t-94.5 231.5zM233 1268q0 78 38.5 122t115.5 44q72 0 172 -35l74 -27q67 -24 100 -24q40 0 45 36l2 15q3 19 13.5 26t31.5 7h64q41 0 41 -62q0 -77 -37.5 -120.5t-112.5 -43.5q-71 0 -174 35l-71 27q-135 52 -146 -8l-4 -17 q-5 -31 -45 -31h-61q-24 0 -35 12t-11 44zM330 311q0 -65 47 -104t133 -39q135 0 205.5 67t70.5 173v88q-75 -2 -129 -6t-109.5 -11.5t-92.5 -21t-67 -33t-44 -48t-14 -65.5z" />
<glyph unicode="&#xe4;" horiz-adv-x="1177" d="M72 295q0 64 18 114.5t49 87t81 64t106.5 44.5t133.5 28t152.5 15.5t173.5 6.5v47q0 96 -55.5 141.5t-177.5 45.5q-149 0 -307 -62q-45 -15 -60 29l-36 113q-11 38 28 57q79 34 189.5 56t220.5 22q236 0 349.5 -98t113.5 -291v-668q0 -47 -50 -47h-151q-44 0 -47 39 l-8 111q-108 -168 -373 -168q-161 0 -255.5 81.5t-94.5 231.5zM258 1255v136q0 47 49 47h146q25 0 36 -11t11 -36v-136q0 -45 -47 -45h-146q-49 0 -49 45zM330 311q0 -65 47 -104t133 -39q135 0 205.5 67t70.5 173v88q-75 -2 -129 -6t-109.5 -11.5t-92.5 -21t-67 -33 t-44 -48t-14 -65.5zM664 1255v136q0 47 49 47h145q25 0 36 -11t11 -36v-136q0 -45 -47 -45h-145q-49 0 -49 45z" />
<glyph unicode="&#xe5;" horiz-adv-x="1177" d="M72 295q0 64 18 114.5t49 87t81 64t106.5 44.5t133.5 28t152.5 15.5t173.5 6.5v47q0 96 -55.5 141.5t-177.5 45.5q-149 0 -307 -62q-45 -15 -60 29l-36 113q-11 38 28 57q79 34 189.5 56t220.5 22q236 0 349.5 -98t113.5 -291v-668q0 -47 -50 -47h-151q-44 0 -47 39 l-8 111q-108 -168 -373 -168q-161 0 -255.5 81.5t-94.5 231.5zM330 311q0 -65 47 -104t133 -39q135 0 205.5 67t70.5 173v88q-75 -2 -129 -6t-109.5 -11.5t-92.5 -21t-67 -33t-44 -48t-14 -65.5zM360 1411q0 93 65 152t167 59q103 0 169 -59t66 -152q0 -95 -65.5 -154 t-167.5 -59q-103 0 -168.5 59t-65.5 154zM479 1411q0 -49 31 -76.5t84 -27.5q50 0 80.5 27.5t30.5 76.5q0 46 -31 74t-82 28t-82 -28t-31 -74z" />
<glyph unicode="&#xe6;" horiz-adv-x="1863" d="M72 295q0 46 8 84.5t26 69t40 54.5t56 42.5t68 32t82.5 22.5t92.5 15t105 9.5t113 4.5t123 2v92q-3 166 -231 166q-153 0 -315 -62q-42 -16 -58 29l-39 113q-12 39 29 57q198 78 403 78q297 0 367 -182q47 85 144.5 133.5t222.5 48.5q217 0 341 -136t124 -362v-110 q0 -47 -50 -47h-675q17 -126 101.5 -199.5t217.5 -73.5q116 0 262 64q45 20 62 -31l34 -98q6 -19 -1.5 -32t-28.5 -26q-57 -32 -154 -55t-194 -23q-163 0 -277.5 61.5t-155.5 160.5q-131 -215 -440 -215q-207 0 -305 79t-98 234zM330 311q0 -141 188 -141q134 0 202 70.5 t68 177.5v51q-232 -5 -308 -20q-124 -24 -145 -99q-5 -19 -5 -39zM1042 621h486v14q0 127 -58.5 197.5t-173.5 70.5q-114 0 -179.5 -72t-74.5 -210z" />
<glyph unicode="&#xe7;" horiz-adv-x="1052" d="M88 543q0 272 146.5 416.5t394.5 144.5q98 0 183 -20t132 -50q43 -24 27 -63l-49 -111q-19 -42 -68 -22q-86 39 -192 39q-141 0 -219 -82.5t-78 -251.5q0 -170 77.5 -255t214.5 -85q118 0 211 49q48 20 64 -23l49 -112q15 -37 -29 -64q-46 -30 -129.5 -52.5t-171.5 -23.5 q121 -61 121 -159q0 -79 -58.5 -119.5t-166.5 -40.5q-66 0 -96 12q-29 6 -29 31v68q0 26 31 26h61q98 0 98 64q0 74 -114 133q-192 36 -301 177.5t-109 373.5z" />
<glyph unicode="&#xe8;" horiz-adv-x="1191" d="M88 539q0 268 140.5 416.5t381.5 148.5q234 0 364 -140.5t130 -373.5v-101q0 -26 -11.5 -37.5t-37.5 -11.5h-699q15 -123 103 -193.5t229 -70.5q140 0 268 64q45 20 62 -29l35 -96q11 -40 -31 -60q-160 -80 -356 -80q-272 0 -425 149.5t-153 414.5zM334 1443q5 19 28 19 h207q40 0 56 -32l94 -181q8 -15 -0.5 -27t-28.5 -12h-102q-37 0 -62 25l-182 176q-15 13 -10 32zM350 612h508v13q0 130 -62.5 204t-181.5 74q-243 0 -264 -291z" />
<glyph unicode="&#xe9;" horiz-adv-x="1191" d="M88 539q0 268 140.5 416.5t381.5 148.5q234 0 364 -140.5t130 -373.5v-101q0 -26 -11.5 -37.5t-37.5 -11.5h-699q15 -123 103 -193.5t229 -70.5q140 0 268 64q45 20 62 -29l35 -96q11 -40 -31 -60q-160 -80 -356 -80q-272 0 -425 149.5t-153 414.5zM350 612h508v13 q0 130 -62.5 204t-181.5 74q-243 0 -264 -291zM486.5 1222q-7.5 12 0.5 27l93 181q16 32 55 32h207q24 0 28 -18t-12 -33l-180 -176q-25 -25 -62 -25h-102q-20 0 -27.5 12z" />
<glyph unicode="&#xea;" horiz-adv-x="1191" d="M88 539q0 268 140.5 416.5t381.5 148.5q234 0 364 -140.5t130 -373.5v-101q0 -26 -11.5 -37.5t-37.5 -11.5h-699q15 -123 103 -193.5t229 -70.5q140 0 268 64q45 20 62 -29l35 -96q11 -40 -31 -60q-160 -80 -356 -80q-272 0 -425 149.5t-153 414.5zM288.5 1225 q-5.5 15 8.5 30l188 199q15 16 28 22.5t38 6.5h111q26 0 38 -6t27 -23l188 -199q14 -15 9 -30t-27 -15h-94q-23 0 -55 25l-140 111l-141 -111q-32 -25 -55 -25h-95q-23 0 -28.5 15zM350 612h508v13q0 130 -62.5 204t-181.5 74q-243 0 -264 -291z" />
<glyph unicode="&#xeb;" horiz-adv-x="1191" d="M88 539q0 268 140.5 416.5t381.5 148.5q234 0 364 -140.5t130 -373.5v-101q0 -26 -11.5 -37.5t-37.5 -11.5h-699q15 -123 103 -193.5t229 -70.5q140 0 268 64q45 20 62 -29l35 -96q11 -40 -31 -60q-160 -80 -356 -80q-272 0 -425 149.5t-153 414.5zM283 1255v136 q0 47 49 47h145q25 0 36 -11t11 -36v-136q0 -45 -47 -45h-145q-49 0 -49 45zM350 612h508v13q0 130 -62.5 204t-181.5 74q-243 0 -264 -291zM688 1255v136q0 47 49 47h146q25 0 36 -11t11 -36v-136q0 -45 -47 -45h-146q-49 0 -49 45z" />
<glyph unicode="&#xec;" horiz-adv-x="559" d="M-12 1443q5 19 28 19h207q40 0 56 -32l94 -181q8 -15 -0.5 -27t-28.5 -12h-102q-37 0 -62 25l-182 176q-15 13 -10 32zM143 47v985q0 47 50 47h176q24 0 34.5 -11t10.5 -36v-985q0 -25 -10.5 -36t-34.5 -11h-176q-50 0 -50 47z" />
<glyph unicode="&#xed;" horiz-adv-x="559" d="M143 47v985q0 47 50 47h176q24 0 34.5 -11t10.5 -36v-985q0 -25 -10.5 -36t-34.5 -11h-176q-50 0 -50 47zM189.5 1222q-7.5 12 0.5 27l93 181q16 32 55 32h207q24 0 28 -18t-12 -33l-180 -176q-25 -25 -62 -25h-102q-20 0 -27.5 12z" />
<glyph unicode="&#xee;" horiz-adv-x="559" d="M-39 1225q-6 15 8 30l189 199q15 16 27.5 22.5t37.5 6.5h111q26 0 38 -6t27 -23l189 -199q14 -15 9 -30t-28 -15h-94q-23 0 -55 25l-139 111l-142 -111q-32 -25 -55 -25h-94q-23 0 -29 15zM143 47v985q0 47 50 47h176q24 0 34.5 -11t10.5 -36v-985q0 -25 -10.5 -36 t-34.5 -11h-176q-50 0 -50 47z" />
<glyph unicode="&#xef;" horiz-adv-x="559" d="M-45 1255v136q0 47 49 47h146q25 0 36 -11t11 -36v-136q0 -45 -47 -45h-146q-49 0 -49 45zM143 47v985q0 47 50 47h176q24 0 34.5 -11t10.5 -36v-985q0 -25 -10.5 -36t-34.5 -11h-176q-50 0 -50 47zM360 1255v136q0 47 50 47h145q25 0 36 -11t11 -36v-136q0 -45 -47 -45 h-145q-50 0 -50 45z" />
<glyph unicode="&#xf0;" horiz-adv-x="1241" d="M88 535q0 135 38.5 241t108 174.5t162.5 104t205 35.5q153 0 227 -66q-45 89 -110 164h-291q-37 0 -37 39v51q0 39 37 39h184q-17 17 -58.5 47t-55.5 37q-19 11 -14.5 29t24.5 18h174q41 0 66 -25q51 -41 108 -106h203q39 0 39 -39v-51q0 -39 -39 -39h-115 q99 -138 155 -305t56 -336q0 -279 -142.5 -424.5t-391.5 -145.5q-247 0 -390 145.5t-143 412.5zM365 535q0 -340 256 -340q125 0 191.5 85.5t66.5 254.5q0 173 -67 262.5t-191 89.5t-190 -88.5t-66 -263.5z" />
<glyph unicode="&#xf1;" horiz-adv-x="1245" d="M135 47v985q0 25 11 36t36 11h162q44 0 47 -41l10 -106q103 172 344 172q187 0 279 -104t92 -295v-658q0 -25 -11 -36t-36 -11h-176q-49 0 -49 47v608q0 108 -46 161.5t-153 53.5q-115 0 -177 -66t-62 -181v-576q0 -47 -48 -47h-176q-25 0 -36 11t-11 36zM274 1268 q0 78 38.5 122t115.5 44q72 0 172 -35l74 -27q67 -24 100 -24q40 0 45 36l2 15q3 19 13.5 26t31.5 7h64q41 0 41 -62q0 -77 -37.5 -120.5t-112.5 -43.5q-71 0 -174 35l-72 27q-134 52 -145 -8l-4 -17q-5 -31 -45 -31h-62q-24 0 -34.5 11.5t-10.5 44.5z" />
<glyph unicode="&#xf2;" horiz-adv-x="1243" d="M88 541q0 -273 142.5 -418.5t390.5 -145.5t391 145.5t143 418.5t-143 418t-391 145t-390.5 -145t-142.5 -418zM342.5 1443q5.5 19 28.5 19h207q39 0 55 -32l94 -181q8 -15 -0.5 -27t-28.5 -12h-102q-36 0 -61 25l-183 176q-15 13 -9.5 32zM365 541q0 346 256 346 q258 0 258 -346t-258 -346q-256 0 -256 346z" />
<glyph unicode="&#xf3;" horiz-adv-x="1243" d="M88 541q0 -273 142.5 -418.5t390.5 -145.5t391 145.5t143 418.5t-143 418t-391 145t-390.5 -145t-142.5 -418zM365 541q0 346 256 346q258 0 258 -346t-258 -346q-256 0 -256 346zM513.5 1222q-7.5 12 0.5 27l92 181q16 32 56 32h206q24 0 28.5 -18t-11.5 -33l-180 -176 q-25 -25 -62 -25h-102q-20 0 -27.5 12z" />
<glyph unicode="&#xf4;" horiz-adv-x="1243" d="M88 541q0 -273 142.5 -418.5t390.5 -145.5t391 145.5t143 418.5t-143 418t-391 145t-390.5 -145t-142.5 -418zM303 1225q-6 15 8 30l189 199q15 16 27.5 22.5t37.5 6.5h111q26 0 38 -6t27 -23l189 -199q14 -15 9 -30t-28 -15h-94q-23 0 -55 25l-139 111l-142 -111 q-32 -25 -55 -25h-94q-23 0 -29 15zM365 541q0 346 256 346q258 0 258 -346t-258 -346q-256 0 -256 346z" />
<glyph unicode="&#xf5;" horiz-adv-x="1243" d="M88 541q0 273 142.5 418t390.5 145t391 -145t143 -418t-143 -418.5t-391 -145.5t-390.5 145.5t-142.5 418.5zM272 1268q0 78 38.5 122t115.5 44q72 0 172 -35l74 -27q67 -24 100 -24q40 0 45 36l2 15q3 19 13.5 26t31.5 7h64q41 0 41 -62q0 -77 -37.5 -120.5 t-112.5 -43.5q-71 0 -174 35l-72 27q-134 52 -145 -8l-4 -17q-5 -31 -45 -31h-62q-24 0 -34.5 11.5t-10.5 44.5zM365 541q0 -346 256 -346q258 0 258 346t-258 346q-256 0 -256 -346z" />
<glyph unicode="&#xf6;" horiz-adv-x="1243" d="M88 541q0 -273 142.5 -418.5t390.5 -145.5t391 145.5t143 418.5t-143 418t-391 145t-390.5 -145t-142.5 -418zM297 1255v136q0 47 49 47h146q25 0 36 -11t11 -36v-136q0 -45 -47 -45h-146q-49 0 -49 45zM365 541q0 346 256 346q258 0 258 -346t-258 -346q-256 0 -256 346 zM702 1255v136q0 47 50 47h145q25 0 36 -11t11 -36v-136q0 -45 -47 -45h-145q-50 0 -50 45z" />
<glyph unicode="&#xf7;" d="M121 653v109q0 47 47 47h891q47 0 47 -47v-109q0 -47 -47 -47h-893q-45 0 -45 47zM477 219v182q0 45 49 45h174q50 0 50 -45v-182q0 -49 -48 -49h-178q-47 0 -47 49zM477 1014v182q0 47 49 47h174q50 0 50 -47v-182q0 -47 -48 -47h-178q-25 0 -36 11t-11 36z" />
<glyph unicode="&#xf8;" horiz-adv-x="1251" d="M92 541q0 273 142.5 418t390.5 145q194 0 325 -92l51 59q33 35 68 8l43 -37q34 -26 6 -61l-61 -72q102 -138 102 -368q0 -273 -143 -418.5t-391 -145.5q-191 0 -324 91l-53 -62q-31 -36 -66 -6l-43 37q-35 31 -6 63l62 72q-103 141 -103 369zM369 541q0 -99 28 -160 l398 444q-59 62 -170 62q-256 0 -256 -346zM457 254q65 -59 168 -59q258 0 258 346q0 98 -29 157z" />
<glyph unicode="&#xf9;" horiz-adv-x="1230" d="M123 369v663q0 47 49 47h176q24 0 34.5 -11t10.5 -36v-612q0 -104 43.5 -158.5t147.5 -54.5q110 0 174.5 65.5t64.5 176.5v583q0 47 47 47h179q45 0 45 -47v-985q0 -47 -45 -47h-164q-46 0 -49 39l-9 111q-99 -173 -333 -173q-371 0 -371 392zM342.5 1443q5.5 19 28.5 19 h207q39 0 55 -32l94 -181q8 -15 -0.5 -27t-28.5 -12h-102q-36 0 -61 25l-183 176q-15 13 -9.5 32z" />
<glyph unicode="&#xfa;" horiz-adv-x="1230" d="M123 369v663q0 47 49 47h176q24 0 34.5 -11t10.5 -36v-612q0 -104 43.5 -158.5t147.5 -54.5q110 0 174.5 65.5t64.5 176.5v583q0 47 47 47h179q45 0 45 -47v-985q0 -47 -45 -47h-164q-46 0 -49 39l-9 111q-99 -173 -333 -173q-371 0 -371 392zM503 1222q-7 12 1 27 l92 181q16 32 55 32h207q24 0 28 -18t-12 -33l-180 -176q-25 -25 -61 -25h-103q-20 0 -27 12z" />
<glyph unicode="&#xfb;" horiz-adv-x="1230" d="M123 369v663q0 47 49 47h176q24 0 34.5 -11t10.5 -36v-612q0 -104 43.5 -158.5t147.5 -54.5q110 0 174.5 65.5t64.5 176.5v583q0 47 47 47h179q45 0 45 -47v-985q0 -47 -45 -47h-164q-46 0 -49 39l-9 111q-99 -173 -333 -173q-371 0 -371 392zM297 1225q-6 15 8 30 l189 199q15 16 27.5 22.5t37.5 6.5h111q26 0 38 -6t27 -23l189 -199q14 -15 9 -30t-28 -15h-94q-23 0 -55 25l-140 111l-141 -111q-32 -25 -55 -25h-94q-23 0 -29 15z" />
<glyph unicode="&#xfc;" horiz-adv-x="1230" d="M123 369v663q0 47 49 47h176q24 0 34.5 -11t10.5 -36v-612q0 -104 43.5 -158.5t147.5 -54.5q110 0 174.5 65.5t64.5 176.5v583q0 47 47 47h179q45 0 45 -47v-985q0 -47 -45 -47h-164q-46 0 -49 39l-9 111q-99 -173 -333 -173q-371 0 -371 392zM291 1255v136q0 47 49 47 h145q25 0 36 -11t11 -36v-136q0 -45 -47 -45h-145q-49 0 -49 45zM696 1255v136q0 47 49 47h146q25 0 36 -11t11 -36v-136q0 -45 -47 -45h-146q-49 0 -49 45z" />
<glyph unicode="&#xfd;" horiz-adv-x="1101" d="M45 1026q-9 23 0 38t35 15h184q22 0 34.5 -11t20.5 -34l166 -479l90 -299h5l75 299l133 479q12 45 56 45h180q26 0 36.5 -14.5t2.5 -38.5l-311 -936q-30 -95 -58.5 -152.5t-73 -99.5t-107 -59t-155.5 -17q-109 0 -194 23q-23 7 -33.5 17t-7.5 30l14 117q5 40 43 37 q3 0 42.5 -6.5t74.5 -6.5q78 0 106 39.5t3 102.5zM441.5 1222q-7.5 12 0.5 27l93 181q16 32 55 32h207q24 0 28 -18t-12 -33l-180 -176q-25 -25 -62 -25h-102q-20 0 -27.5 12z" />
<glyph unicode="&#xfe;" horiz-adv-x="1298" d="M139 -178v1575q0 24 11 34.5t36 10.5h176q25 0 36.5 -10.5t11.5 -34.5v-463q43 81 137 125.5t205 44.5q218 0 337 -142.5t119 -420.5q0 -279 -119 -421.5t-337 -142.5q-114 0 -207 42t-135 126v-323q0 -47 -48 -47h-176q-25 0 -36 11t-11 36zM410 541q0 -344 264 -344 q131 0 194.5 81t63.5 263t-63.5 263t-194.5 81q-264 0 -264 -344z" />
<glyph unicode="&#xff;" horiz-adv-x="1101" d="M45 1026q-9 23 0 38t35 15h184q22 0 34.5 -11t20.5 -34l166 -479l90 -299h5l75 299l133 479q12 45 56 45h180q26 0 36.5 -14.5t2.5 -38.5l-311 -936q-30 -95 -58.5 -152.5t-73 -99.5t-107 -59t-155.5 -17q-109 0 -194 23q-23 7 -33.5 17t-7.5 30l14 117q5 40 43 37 q3 0 42.5 -6.5t74.5 -6.5q78 0 106 39.5t3 102.5zM227 1255v136q0 47 49 47h146q25 0 36 -11t11 -36v-136q0 -45 -47 -45h-146q-49 0 -49 45zM633 1255v136q0 47 49 47h145q25 0 36 -11t11 -36v-136q0 -45 -47 -45h-145q-49 0 -49 45z" />
<glyph unicode="&#x152;" horiz-adv-x="1908" d="M156 721q0 197 44 336t135 223.5t219 123t306 38.5h899q51 0 51 -49v-148q0 -49 -51 -49h-522v-342h496q49 0 49 -51v-135q0 -52 -49 -52h-496v-368h530q52 0 52 -49v-148q0 -51 -52 -51h-909q-177 0 -305.5 38.5t-218.5 123.5t-134 223.5t-44 335.5zM446 721 q0 -138 25.5 -229.5t80.5 -143.5t129.5 -73t184.5 -21h90v934h-88q-73 0 -128.5 -8.5t-104.5 -29.5t-83 -56t-58.5 -86.5t-36 -122.5t-11.5 -164z" />
<glyph unicode="&#x153;" horiz-adv-x="1925" d="M88 541q0 271 138.5 417t371.5 146q134 0 235 -48.5t158 -140.5q56 91 151 140t222 49q218 0 344.5 -140t126.5 -364v-100q0 -26 -11 -36.5t-36 -10.5h-672q15 -128 100.5 -202.5t215.5 -74.5q134 0 258 62q46 21 63 -27l35 -100q13 -34 -27 -56q-160 -80 -352 -80 q-135 0 -245 53.5t-169 145.5q-56 -92 -158 -144.5t-231 -52.5q-237 0 -377.5 147t-140.5 417zM365 541q0 -174 63 -260t182 -86q118 0 183 86.5t65 259.5t-65 259.5t-183 86.5q-119 0 -182 -86t-63 -260zM1110 623h479v12q0 121 -59 194.5t-170 73.5q-109 0 -174.5 -72 t-75.5 -208z" />
<glyph unicode="&#x178;" horiz-adv-x="1357" d="M52.5 1423q10.5 19 37.5 19h197q26 0 41 -11t26 -34l228 -434l96 -201h2l94 201l230 434q12 23 26 34t41 11h197q27 0 37.5 -19t-2.5 -41l-482 -852v-479q0 -51 -49 -51h-186q-27 0 -39 12t-12 39v479l-480 852q-13 22 -2.5 41zM348 1595v129q0 48 45 48h154q49 0 49 -48 v-129q0 -47 -49 -47h-154q-45 0 -45 47zM764 1595v129q0 25 10.5 36.5t34.5 11.5h154q47 0 47 -48v-129q0 -25 -11 -36t-36 -11h-154q-24 0 -34.5 11t-10.5 36z" />
<glyph unicode="&#x2c6;" horiz-adv-x="727" d="M45 1225q-6 15 8 30l189 199q15 16 27.5 22.5t37.5 6.5h111q26 0 38 -6t27 -23l189 -199q14 -15 9 -30t-28 -15h-94q-23 0 -55 25l-139 111l-142 -111q-32 -25 -55 -25h-94q-23 0 -29 15z" />
<glyph unicode="&#x2dc;" horiz-adv-x="727" d="M14 1268q0 78 38.5 122t115.5 44q72 0 172 -35l74 -27q67 -24 100 -24q40 0 45 36l2 15q3 19 13.5 26t31.5 7h64q41 0 41 -62q0 -77 -37.5 -120.5t-112.5 -43.5q-71 0 -174 35l-72 27q-134 52 -145 -8l-4 -17q-5 -31 -45 -31h-62q-24 0 -34.5 11.5t-10.5 44.5z" />
<glyph unicode="&#x2000;" horiz-adv-x="948" />
<glyph unicode="&#x2001;" horiz-adv-x="1896" />
<glyph unicode="&#x2002;" horiz-adv-x="948" />
<glyph unicode="&#x2003;" horiz-adv-x="1896" />
<glyph unicode="&#x2004;" horiz-adv-x="632" />
<glyph unicode="&#x2005;" horiz-adv-x="474" />
<glyph unicode="&#x2006;" horiz-adv-x="316" />
<glyph unicode="&#x2007;" horiz-adv-x="316" />
<glyph unicode="&#x2008;" horiz-adv-x="237" />
<glyph unicode="&#x2009;" horiz-adv-x="379" />
<glyph unicode="&#x200a;" horiz-adv-x="105" />
<glyph unicode="&#x2010;" horiz-adv-x="817" d="M82 492v129q0 45 47 45h557q47 0 47 -45v-129q0 -46 -47 -46h-557q-47 0 -47 46z" />
<glyph unicode="&#x2011;" horiz-adv-x="817" d="M82 492v129q0 45 47 45h557q47 0 47 -45v-129q0 -46 -47 -46h-557q-47 0 -47 46z" />
<glyph unicode="&#x2012;" horiz-adv-x="817" d="M82 492v129q0 45 47 45h557q47 0 47 -45v-129q0 -46 -47 -46h-557q-47 0 -47 46z" />
<glyph unicode="&#x2013;" horiz-adv-x="1099" d="M86 492v129q0 24 10.5 34.5t34.5 10.5h838q47 0 47 -45v-129q0 -46 -47 -46h-838q-45 0 -45 46z" />
<glyph unicode="&#x2014;" horiz-adv-x="1591" d="M86 492v129q0 24 10.5 34.5t34.5 10.5h1329q47 0 47 -45v-129q0 -46 -47 -46h-1329q-45 0 -45 46z" />
<glyph unicode="&#x2018;" horiz-adv-x="491" d="M113 979v172q0 33 12 61l102 215q13 27 41 27h60q18 0 23.5 -11.5t0.5 -27.5l-69 -205h63q25 0 36 -11t11 -36v-184q0 -45 -49 -45h-182q-49 0 -49 45z" />
<glyph unicode="&#x2019;" horiz-adv-x="491" d="M100 1219v182q0 47 50 47h180q51 0 51 -47v-170q0 -38 -12 -62l-103 -215q-14 -28 -43 -28h-59q-16 0 -22 12.5t-1 28.5l70 204h-64q-47 0 -47 48z" />
<glyph unicode="&#x201a;" horiz-adv-x="491" d="M100 47v182q0 47 50 47h180q51 0 51 -47v-170q0 -37 -12 -61l-103 -215q-14 -29 -43 -29h-59q-16 0 -22 12.5t-1 28.5l70 205h-64q-25 0 -36 11t-11 36z" />
<glyph unicode="&#x201c;" horiz-adv-x="897" d="M113 979v172q0 33 12 61l102 215q13 27 41 27h60q18 0 23.5 -11.5t0.5 -27.5l-69 -205h63q25 0 36 -11t11 -36v-184q0 -45 -49 -45h-182q-49 0 -49 45zM516 979v172q0 33 14 61l103 215q13 27 41 27h59q18 0 24 -12t-1 -27l-68 -205h64q47 0 47 -47v-184q0 -45 -51 -45 h-181q-51 0 -51 45z" />
<glyph unicode="&#x201d;" horiz-adv-x="897" d="M100 1217v184q0 47 50 47h180q51 0 51 -47v-170q0 -40 -12 -62l-103 -215q-12 -28 -43 -28h-59q-16 0 -22 12.5t-1 28.5l70 204h-64q-47 0 -47 46zM506 1217v184q0 47 49 47h182q49 0 49 -47v-170q0 -40 -12 -62l-102 -215q-12 -28 -43 -28h-60q-18 0 -23.5 13t1.5 28 l69 204h-65q-45 0 -45 46z" />
<glyph unicode="&#x201e;" horiz-adv-x="897" d="M100 45v184q0 47 50 47h180q51 0 51 -47v-170q0 -39 -12 -61l-103 -215q-13 -29 -43 -29h-59q-16 0 -22 12.5t-1 28.5l70 205h-64q-47 0 -47 45zM506 45v184q0 47 49 47h182q49 0 49 -47v-170q0 -39 -12 -61l-102 -215q-13 -29 -43 -29h-60q-18 0 -23.5 13t1.5 28l69 205 h-65q-24 0 -34.5 10.5t-10.5 34.5z" />
<glyph unicode="&#x2022;" horiz-adv-x="827" d="M117 561q0 127 85.5 212t211.5 85t211.5 -85t85.5 -212t-85.5 -213t-211.5 -86t-211.5 86t-85.5 213z" />
<glyph unicode="&#x2026;" horiz-adv-x="1525" d="M113 47v197q0 45 51 45h180q27 0 39 -10.5t12 -34.5v-197q0 -25 -11 -36t-36 -11h-188q-25 0 -36 11t-11 36zM623 47v197q0 45 49 45h182q49 0 49 -45v-197q0 -25 -10.5 -36t-34.5 -11h-188q-25 0 -36 11t-11 36zM1130 47v197q0 45 52 45h182q49 0 49 -45v-197 q0 -25 -11 -36t-36 -11h-186q-50 0 -50 47z" />
<glyph unicode="&#x202f;" horiz-adv-x="379" />
<glyph unicode="&#x2039;" horiz-adv-x="583" d="M68 578q0 14 6 24l170 283q9 18 21 25.5t36 7.5h150q24 0 31 -14t-5 -34l-174 -290l174 -289q12 -20 5 -34.5t-31 -14.5h-150q-24 0 -36 7t-21 25l-170 283q-6 10 -6 21z" />
<glyph unicode="&#x203a;" horiz-adv-x="583" d="M101 255.5q-7 13.5 5 35.5l175 289l-175 290q-12 20 -4.5 34t31.5 14h150q24 0 36 -7.5t21 -25.5l170 -283q6 -10 6 -24q0 -11 -6 -19l-170 -285q-11 -18 -22 -25t-35 -7h-150q-25 0 -32 13.5z" />
<glyph unicode="&#x205f;" horiz-adv-x="474" />
<glyph unicode="&#x20ac;" horiz-adv-x="1341" d="M43 537v71q0 39 37 39h117q-4 46 -4 74q0 44 4 76h-117q-37 0 -37 37v73q0 37 37 37h131q49 235 220 378.5t437 143.5q215 0 381 -96q22 -13 28 -25t-3 -36l-57 -127q-11 -23 -25.5 -29.5t-42.5 4.5q-112 55 -246 55q-156 0 -256 -76t-139 -192h510q42 0 26 -43l-26 -70 q-13 -34 -53 -34h-478q-4 -25 -4 -76q0 -34 4 -74h394q20 0 27 -12t-1 -31l-26 -69q-13 -35 -54 -35h-317q37 -118 137 -193.5t260 -75.5q117 0 248 58q29 10 43 3t25 -32l59 -127q8 -25 2.5 -35t-27.5 -24q-154 -97 -385 -97q-269 0 -441.5 144t-221.5 379h-129 q-20 0 -28.5 8.5t-8.5 28.5z" />
<glyph unicode="&#x2122;" horiz-adv-x="1533" d="M74 1331v78q0 33 32 33h457q35 0 35 -33v-78q0 -35 -35 -35h-141v-491q0 -33 -35 -33h-102q-37 0 -37 33v491h-142q-32 0 -32 35zM707 805v604q0 33 34 33h109q28 0 41 -23l180 -276l180 276q16 23 43 23h107q35 0 35 -33v-604q0 -33 -37 -33h-99q-34 0 -34 33v393 l-162 -244q-14 -20 -33 -20t-31 20l-163 246v-395q0 -33 -35 -33h-99q-36 0 -36 33z" />
<glyph unicode="&#x25fc;" horiz-adv-x="1075" d="M0 0v1075h1075v-1075h-1075z" />
</font>
</defs>
</svg>
