<?xml version="1.0" encoding="UTF-8"?> <svg xmlns="http://www.w3.org/2000/svg" xmlns:xlink="http://www.w3.org/1999/xlink" id="Group_1457" data-name="Group 1457" width="48" height="45.027" viewBox="0 0 48 45.027"><defs><clipPath id="clip-path"><rect id="Rectangle_1961" data-name="Rectangle 1961" width="48" height="45.028" fill="none"></rect></clipPath></defs><g id="Group_1456" data-name="Group 1456" transform="translate(0 0)" clip-path="url(#clip-path)"><path id="Path_3361" data-name="Path 3361" d="M42.282,0A5.717,5.717,0,0,1,48,5.718v25.73a5.717,5.717,0,0,1-5.718,5.718H39.423v7.147a.711.711,0,0,1-.107.376.713.713,0,0,1-.672.336.712.712,0,0,1-.364-.14L27.988,37.165H5.718A5.718,5.718,0,0,1,0,31.448V5.718A5.718,5.718,0,0,1,5.718,0Z" transform="translate(0 0)" fill="#127eff"></path><path id="Path_3362" data-name="Path 3362" d="M10.992,9.918a.477.477,0,0,0-.432.513l-.013,2.542L28.485,28.3l18.09-15.147.013-2.542a.476.476,0,0,0-.426-.517l-35.17-.175ZM10.534,15.5l-.093,18.76L20.1,23.672Zm36.027.18-9.65,8.077,9.557,10.683ZM21.519,24.886l-9.825,10.78,33.507.167L35.484,24.956,28.971,30.41h0a.742.742,0,0,1-.992,0Z" transform="translate(-4.669 -4.435)" fill="#fff"></path></g></svg> 