<?xml version="1.0" encoding="UTF-8"?> <svg xmlns="http://www.w3.org/2000/svg" xmlns:xlink="http://www.w3.org/1999/xlink" id="Group_1455" data-name="Group 1455" width="36.771" height="48" viewBox="0 0 36.771 48"><defs><clipPath id="clip-path"><rect id="Rectangle_1960" data-name="Rectangle 1960" width="36.771" height="48" fill="none"></rect></clipPath></defs><g id="Group_1454" data-name="Group 1454" transform="translate(0 0)" clip-path="url(#clip-path)"><path id="Path_3360" data-name="Path 3360" d="M18.385,48A2.119,2.119,0,0,1,17,47.481a68.756,68.756,0,0,1-6.3-6.262l-.063-.074c-.683-.777-1.237-1.433-1.745-2.064C4.836,34.071,0,26.409,0,18.386a18.386,18.386,0,0,1,36.771,0c0,.021,0,.042,0,.063-.024,7.995-4.832,15.614-8.867,20.6a69.173,69.173,0,0,1-8.129,8.431A2.116,2.116,0,0,1,18.385,48m-.009-36.381a6.844,6.844,0,1,0,6.844,6.844,6.852,6.852,0,0,0-6.844-6.844" transform="translate(0 0)" fill="#127eff"></path></g></svg> 