<?xml version="1.0" encoding="UTF-8"?>
<svg width="172px" height="51px" viewBox="0 0 172 51" version="1.1" xmlns="http://www.w3.org/2000/svg" xmlns:xlink="http://www.w3.org/1999/xlink">
    <!-- Generator: Sketch 45.1 (43504) - http://www.bohemiancoding.com/sketch -->
    <title>LSX-logo-white background</title>
    <desc>Created with Sketch.</desc>
    <defs></defs>
    <g id="Page-1" stroke="none" stroke-width="1" fill="none" fill-rule="evenodd">
        <g id="LSX-logo-white-background" transform="translate(-1.000000, -1.000000)">
            <path d="M49.162,15.398 C49.162,14.878 48.902,14.644 48.382,14.644 L45.444,14.644 C44.924,14.644 44.69,14.878 44.69,15.398 L44.69,32.246 C44.69,32.766 44.924,33 45.444,33 L55.636,33 C56.156,33 56.39,32.766 56.39,32.246 L56.39,29.776 C56.39,29.256 56.156,29.022 55.636,29.022 L49.162,29.022 L49.162,15.398 Z M72.7512222,27.852 C72.7512222,24.108 70.0472222,23.146 67.0832222,22.002 C65.2372222,21.274 63.9892222,20.806 63.9892222,19.636 C63.9892222,18.492 65.0032222,18.102 66.7712222,18.102 C68.0712222,18.102 69.3192222,18.31 70.3072222,18.648 C70.8272222,18.83 71.0872222,18.7 71.2692222,18.206 L71.9972222,16.334 C72.1792222,15.84 71.9712222,15.632 71.5552222,15.398 C70.5412222,14.878 68.6952222,14.358 66.3292222,14.358 C61.9872222,14.358 59.5172222,16.022 59.5172222,19.506 C59.5172222,23.328 62.2472222,24.446 65.0292222,25.434 C66.9012222,26.11 68.2792222,26.63 68.2792222,27.8 C68.2792222,29.048 66.8752222,29.542 64.9512222,29.542 C63.2872222,29.542 61.9092222,29.152 60.9992222,28.762 C60.4792222,28.554 60.1932222,28.736 60.0372222,29.204 L59.3092222,31.18 C59.1272222,31.7 59.3092222,31.908 59.7252222,32.116 C60.9472222,32.74 63.1052222,33.26 65.6792222,33.26 C69.5792222,33.26 72.7512222,31.7 72.7512222,27.852 Z M83.3404444,27.098 L86.7724444,32.298 C87.0584444,32.766 87.3184444,33 87.8644444,33 L91.0104444,33 C91.5304444,33 91.7384444,32.532 91.4264444,32.064 L85.7584444,23.692 L91.2704444,15.58 C91.5824444,15.138 91.3484444,14.644 90.8544444,14.644 L87.7084444,14.644 C87.1624444,14.644 86.9284444,14.878 86.6424444,15.32 L83.3664444,20.338 L80.1164444,15.32 C79.8564444,14.904 79.5964444,14.644 79.0504444,14.644 L75.8524444,14.644 C75.3584444,14.644 75.1244444,15.138 75.4364444,15.58 L80.9224444,23.718 L75.2804444,32.064 C74.9684444,32.532 75.1764444,33 75.6964444,33 L78.8164444,33 C79.3624444,33 79.6224444,32.74 79.9084444,32.298 L83.3404444,27.098 Z M100.975667,21.04 C101.183667,21.04 101.287667,20.962 101.287667,20.728 L101.287667,20 C101.287667,19.766 101.183667,19.662 100.975667,19.662 L97.3096666,19.662 L97.3096666,16.204 C97.3096666,15.97 97.2056666,15.892 96.9976666,15.892 L96.1656666,15.892 C95.9316666,15.892 95.8536666,15.97 95.8536666,16.204 L95.8536666,19.662 L93.7996666,19.662 C93.5916666,19.662 93.4876666,19.766 93.4876666,20 L93.4876666,20.728 C93.4876666,20.962 93.5916666,21.04 93.7996666,21.04 L95.8276666,21.04 L95.8276666,29.152 C95.8276666,32.064 96.7896666,33.156 99.4156666,33.156 C100.091667,33.156 100.871667,33.026 101.261667,32.87 C101.417667,32.818 101.521667,32.74 101.469667,32.558 L101.261667,31.856 C101.209667,31.674 101.157667,31.57 100.949667,31.596 C100.559667,31.674 100.247667,31.778 99.6496666,31.778 C97.8296666,31.778 97.3096666,31.128 97.3096666,28.996 L97.3096666,21.04 L100.975667,21.04 Z M116.374889,24.108 C116.374889,21.222 114.814889,19.35 111.616889,19.35 C108.730889,19.35 107.300889,20.858 106.806889,22.028 L106.806889,15.06 C106.806889,14.852 106.702889,14.774 106.494889,14.774 L105.610889,14.774 C105.376889,14.774 105.272889,14.852 105.272889,15.06 L105.272889,32.688 C105.272889,32.896 105.376889,33 105.610889,33 L106.494889,33 C106.702889,33 106.806889,32.896 106.806889,32.688 L106.806889,24.914 C106.806889,22.574 108.548889,20.78 111.252889,20.78 C113.826889,20.78 114.866889,22.106 114.866889,24.316 L114.866889,32.688 C114.866889,32.896 114.970889,33 115.178889,33 L116.088889,33 C116.296889,33 116.374889,32.896 116.374889,32.688 L116.374889,24.108 Z M127.354111,31.986 C128.888111,31.986 129.928111,31.674 130.916111,31.128 C131.150111,30.998 131.280111,31.128 131.358111,31.31 L131.618111,31.986 C131.670111,32.168 131.592111,32.272 131.410111,32.35 C130.370111,32.896 128.914111,33.312 127.276111,33.312 C123.116111,33.312 120.724111,30.66 120.724111,26.344 C120.724111,21.898 122.960111,19.35 126.704111,19.35 C130.448111,19.35 132.398111,22.002 132.398111,25.642 L132.398111,26.708 C132.398111,26.942 132.294111,27.02 132.060111,27.02 L122.232111,27.02 C122.362111,30.036 124.208111,31.986 127.354111,31.986 Z M126.704111,20.676 C123.896111,20.676 122.362111,22.418 122.232111,25.746 L130.916111,25.746 L130.916111,25.538 C130.916111,22.704 129.590111,20.676 126.704111,20.676 Z M147.173333,24.55 C147.173333,22.366 148.863333,20.78 151.281333,20.78 C153.595333,20.78 154.479333,22.054 154.479333,24.186 L154.479333,32.688 C154.479333,32.896 154.583333,33 154.791333,33 L155.675333,33 C155.909333,33 155.987333,32.896 155.987333,32.688 L155.987333,24.004 C155.987333,21.222 154.557333,19.35 151.619333,19.35 C148.889333,19.35 147.485333,20.65 146.861333,22.08 C146.393333,20.338 145.067333,19.35 142.805333,19.35 C140.127333,19.35 138.775333,20.832 138.359333,21.976 L138.359333,19.974 C138.359333,19.766 138.255333,19.662 138.047333,19.662 L137.163333,19.662 C136.929333,19.662 136.825333,19.766 136.825333,20 L136.825333,32.688 C136.825333,32.896 136.929333,33 137.163333,33 L138.047333,33 C138.255333,33 138.359333,32.896 138.359333,32.688 L138.359333,24.758 C138.359333,22.418 140.023333,20.78 142.493333,20.78 C144.781333,20.78 145.665333,22.054 145.665333,24.16 L145.665333,32.688 C145.665333,32.896 145.769333,33 145.977333,33 L146.861333,33 C147.069333,33 147.173333,32.896 147.173333,32.688 L147.173333,24.55 Z M166.966555,31.986 C168.500555,31.986 169.540555,31.674 170.528555,31.128 C170.762555,30.998 170.892555,31.128 170.970555,31.31 L171.230555,31.986 C171.282555,32.168 171.204555,32.272 171.022555,32.35 C169.982555,32.896 168.526555,33.312 166.888555,33.312 C162.728555,33.312 160.336555,30.66 160.336555,26.344 C160.336555,21.898 162.572555,19.35 166.316555,19.35 C170.060555,19.35 172.010555,22.002 172.010555,25.642 L172.010555,26.708 C172.010555,26.942 171.906555,27.02 171.672555,27.02 L161.844555,27.02 C161.974555,30.036 163.820555,31.986 166.966555,31.986 Z M166.316555,20.676 C163.508555,20.676 161.974555,22.418 161.844555,25.746 L170.528555,25.746 L170.528555,25.538 C170.528555,22.704 169.202555,20.676 166.316555,20.676 Z" id="LSXtheme" fill="#374750"></path>
            <path d="M34.1726714,21.8111913 C33.9939524,21.4299841 33.6111898,21.1864753 33.1908021,21.1864753 L21.3967928,21.1864753 L27.0050975,2.20510789 C27.1527035,1.70504514 26.925506,1.17092014 26.4631519,0.931034968 C26.0000742,0.691149793 25.4335277,0.814353659 25.111544,1.2231006 L2.23261317,30.2970388 C1.97574978,30.6246161 1.92727134,31.0695995 2.10888461,31.4442842 C2.29049788,31.8189689 2.67036628,32.0574046 3.08568906,32.0574046 L14.7957655,32.0574046 L8.08403359,50.9989119 C7.90820879,51.495351 8.11297594,52.0468695 8.57026513,52.3077718 C8.73885434,52.403436 8.92336185,52.4498186 9.10569868,52.4498186 C9.42044678,52.4498186 9.72940641,52.3135697 9.94213271,52.0570157 L34.025789,22.9678582 C34.2949529,22.6431798 34.352114,22.1923986 34.1726714,21.8111913 L34.1726714,21.8111913 Z" id="Fill-1" fill="#D84E2E" transform="translate(18.138061, 26.629517) rotate(3.000000) translate(-18.138061, -26.629517) "></path>
        </g>
    </g>
</svg>