<svg xmlns="http://www.w3.org/2000/svg" xmlns:xlink="http://www.w3.org/1999/xlink" width="187" height="51" version="1.1" viewBox="0 0 187 51"><title>payfast-footer-logo</title><desc>Created with Sketch.</desc><g id="WC---Checkout-+-login" fill="none" fill-rule="evenodd" stroke="none" stroke-width="1"><g id="Checkout" transform="translate(-626.000000, -1052.000000)"><g id="Group-12" transform="translate(0.000000, 990.000000)"><g id="Group-22"><g id="Group-26"><g id="Group-16" transform="translate(364.000000, 60.000000)"><g id="payfast-footer-logo" transform="translate(263.000000, 0.000000)"><g id="Group-14-Copy-2" transform="translate(58.000000, 0.000000)"><g id="Group-13"><g id="Payfast-Logo-White" fill="#343434" fill-rule="nonzero" transform="translate(0.000000, 19.000000)"><path id="Shape" d="M124.812814,14.1161142 C124.059896,14.5732781 123.261475,14.9499879 122.430589,15.2400923 C121.525011,15.5937143 120.577981,15.8288339 119.61278,15.9396718 C119.202251,16.0074981 118.78594,16.0656349 118.358064,16.1082685 L118.344573,16.1082685 C114.395399,16.4493378 111.020581,15.5947268 109.093215,13.7692313 C109.075616,13.754733 109.058883,13.7392029 109.043103,13.7227219 C109.043103,13.7924861 109.043103,13.8641881 109.043103,13.9417038 C109.048445,14.7569523 109.347704,15.5425809 109.885362,16.1528401 C111.450384,17.9589566 114.46093,18.9434064 117.961027,18.9996053 C120.29314,19.0151084 122.419025,18.5732688 124.049577,17.7864841 C124.818683,17.427959 125.510218,16.9209602 126.084875,16.2943063 C126.633691,15.6944052 126.948537,14.9153795 126.971464,14.1006111 C126.970734,13.5900143 126.848474,13.0870085 126.614901,12.6336259 C126.089149,13.2133217 125.482053,13.7127495 124.812814,14.1161142 L124.812814,14.1161142 Z M117.930189,11.6201077 C114.239283,11.904978 111.059129,11.2112122 109.083578,9.62795341 C109.142435,10.3681206 109.437131,11.0694679 109.92391,11.6278593 C111.487004,13.4359137 114.499477,14.4164877 117.997647,14.4746245 C120.331687,14.4901276 122.457572,14.048288 124.084269,13.2595654 C124.855996,12.9045694 125.548814,12.397111 126.121495,11.7673876 C126.668207,11.1666338 126.980961,10.3877021 127.002302,9.5736924 C127.002155,8.94291487 126.81713,8.326168 126.470349,7.80052005 C125.953815,8.47490691 123.777818,11.1724544 117.930189,11.6201077 Z M118.036194,9.9496437 C120.370235,9.96320895 122.49612,9.52524507 124.120889,8.73264672 C124.893306,8.37787374 125.586797,7.87040268 126.160043,7.2404689 C127.322435,6.01439424 127.339297,4.09182204 126.19859,2.84532694 C124.629714,1.03533462 121.623023,0.0489469437 118.120998,0.000499611732 C115.788885,-0.0169414278 113.663,0.422960346 112.038231,1.20974502 C111.266929,1.5673972 110.573339,2.07446173 109.99715,2.70192284 C109.451203,3.30255084 109.137946,4.08034334 109.114416,4.89368014 C109.122679,5.70849586 109.423119,6.49294402 109.96053,7.10287847 C111.523624,8.9109329 114.538025,9.88956901 118.036194,9.9496437 L118.036194,9.9496437 Z M111.222955,3.12050779 C112.072923,2.07598331 114.71727,1.06052723 117.806838,1.11285035 C119.872974,1.12447771 121.7271,1.56825527 122.977961,2.21163584 C123.502483,2.45375513 123.97213,2.80131929 124.357955,3.2329056 C124.583909,3.47313677 124.714819,3.78807318 124.726082,4.11852283 C124.708134,4.44969924 124.571148,4.76304472 124.340609,5.00026427 C123.494495,6.04478874 120.848221,7.06218271 117.754799,7.0079217 C115.688662,6.99435645 113.836463,6.548641 112.585603,5.90913621 C112.06544,5.66408466 111.597955,5.31912661 111.209463,4.89368014 C110.977083,4.65379147 110.83998,4.3367343 110.82399,4.00224923 C110.844516,3.668982 110.986569,3.35503435 111.222955,3.12050779 L111.222955,3.12050779 Z"/><path id="Shape" d="M31.9791568,12.4402791 C31.1592817,11.4839595 30.0000164,11.0051554 28.5013609,11.0038665 L21.6525435,11.0038665 L21.1415516,13.6331008 L27.9884623,13.6331008 C28.6384162,13.5980897 29.265656,13.8805087 29.6758797,14.3928722 C30.0794205,14.9227321 30.2245427,15.6094082 30.0705638,16.2604018 L29.9714161,16.7108515 L29.9370957,17.0221064 L23.5897368,17.0221064 C22.1010028,17.0176075 20.6580759,17.5438356 19.5132414,18.5087837 C18.3311829,19.4446195 17.525366,20.7846054 17.2461913,22.2786417 L17.1794573,22.5550979 C16.859134,24.0746407 17.1031898,25.33126 17.9116249,26.3249559 C18.7200599,27.3186518 19.8736051,27.8135664 21.3722606,27.8096999 L30.3336865,27.8096999 L32.7570849,16.1231403 C33.0608836,14.6255078 32.8015742,13.3978874 31.9791568,12.4402791 Z M28.2553984,25.1785324 L21.9194796,25.1785324 C21.2627859,25.2057326 20.6301503,24.9256316 20.2034619,24.418761 C19.7820842,23.9122468 19.6524295,23.2878036 19.8106845,22.5512314 L19.8659784,22.2786417 C20.0060199,21.5339473 20.4136831,20.8684619 21.0099902,20.411112 C21.5779151,19.9250748 22.2955467,19.6556315 23.0387045,19.6494074 L29.3479297,19.6494074 L28.2553984,25.1785324 Z M47.3794626,11 L44.4793926,25.1437337 L37.9413651,25.1437337 C37.2840826,25.1719211 36.6507865,24.8908141 36.2253474,24.3820291 C35.8039697,23.8774481 35.674315,23.253005 35.83257,22.5164327 L38.1873276,11 L35.5522871,11 L33.1994361,22.5164327 C32.8803839,24.0385531 33.1307954,25.294528 33.9506705,26.2843574 C34.7705457,27.2741868 35.929811,27.7703903 37.4284665,27.772968 L44.0103478,27.772968 L43.8063324,28.7395982 C43.6356022,29.4750899 43.2201425,30.1284713 42.6299069,30.5897285 C42.0755449,31.0786541 41.3682718,31.3526295 40.6336062,31.3630327 L31.6721803,31.3630327 L31.1154279,34 L40.0768538,34 C41.5539152,33.9922739 42.9803005,33.453093 44.1018687,32.478524 C45.2793706,31.5445788 46.0991949,30.2238748 46.4203994,28.7434647 L50.0431034,11.0038665 L47.3794626,11 Z"/><path id="Shape" d="M19.4545296,13.2455649 C19.1639814,14.6597468 18.3750198,15.9223169 17.231548,16.8029879 C16.0369987,17.7678182 14.7373042,18.2508559 13.3324644,18.2521008 L4.58239079,18.2521008 L2.57405478,28 L0.0431034483,28 L4.61412101,6 L15.9082113,6 C17.3118068,6 18.4036995,6.48303766 19.1838895,7.44911298 C19.9640795,8.4151883 20.212944,9.5978836 19.9304828,10.9971989 L19.4545296,13.2455649 Z M16.9198453,13.2455649 L17.3808667,11.0046685 C17.5376513,10.3075008 17.4200628,9.71490819 17.0281013,9.22689076 C16.6234205,8.74026742 16.013854,8.47197977 15.3818631,8.50233427 L6.62245702,8.50233427 L5.10873908,15.7478992 L13.8644122,15.7478992 C14.5769088,15.7445635 15.2649808,15.4877318 15.8055548,15.0233427 C16.3748187,14.5797036 16.7710035,13.9507771 16.9254447,13.2455649 L16.9198453,13.2455649 Z"/><path id="Shape" d="M74.5216269,27.9648962 L65.4433013,28 C63.9225208,28 62.7519963,27.503996 61.9317277,26.5119881 C61.1114592,25.5199801 60.8590688,24.2523422 61.1745567,22.7090742 L61.2421613,22.4282437 C61.5156945,20.9209708 62.3222459,19.5653539 63.5117427,18.6136285 C64.6676546,17.6353299 66.127318,17.0982877 67.6356204,17.0963634 L74.061916,17.0710107 L74.0947525,16.7570265 L74.1971251,16.3026271 C74.3514579,15.6453306 74.2030627,14.9528226 73.7934293,14.418722 C73.3752419,13.9025887 72.7375706,13.6198258 72.0782053,13.6581393 L64.6030733,13.6854422 L65.1091417,11.0292532 L72.5900683,11 C74.1095611,11 75.2858803,11.4791021 76.1190259,12.4373064 C76.9521716,13.3955107 77.2219459,14.6306451 76.928349,16.1427096 L74.5216269,27.9648962 Z M72.3969124,25.3184582 L73.4805168,19.7193989 L67.0870577,19.7447516 C66.3339074,19.7542247 65.6079417,20.0302988 65.0357425,20.5248365 C64.431829,20.9888963 64.0190787,21.6619255 63.8768073,22.4145922 L63.8092027,22.6954227 C63.6508149,23.4404038 63.7853802,24.0683721 64.2128985,24.5793278 C64.6480545,25.0917164 65.2932263,25.3724313 65.960959,25.3399105 L72.3969124,25.3184582 Z"/><path id="Path" d="M91.9258942,23.3624031 C91.6657896,24.7768325 90.8521275,26.0200822 89.6745888,26.8023256 C88.537578,27.5830633 87.195265,27.9887644 85.8273496,27.9651163 L77.0431034,28 L77.5738223,25.3624031 L86.3580685,25.3294574 C88.0918758,25.3217054 89.0802845,24.6705426 89.3232945,23.375969 L89.4573907,22.751938 C89.7218058,21.4599483 88.9871097,20.8139535 87.2533023,20.8139535 L83.3002971,20.8294574 C81.8372004,20.8294574 80.709659,20.4521964 79.9176729,19.6976744 C79.0148844,18.870801 78.7064001,17.7286822 78.9922202,16.2713178 L79.1263164,15.6453488 C79.3836612,14.2277212 80.1977412,12.9810298 81.3776218,12.1976744 C82.5153015,11.4184028 83.8571581,11.0128396 85.224861,11.0348837 L94.0431034,11 L93.5444922,13.6375969 L84.7262498,13.6724806 C82.9924424,13.6724806 81.9927016,14.3229974 81.7270275,15.624031 L81.5948199,16.25 C81.3518099,17.5419897 82.0978381,18.1879845 83.8329046,18.1879845 L87.7840211,18.1724806 C89.2483769,18.1724806 90.3765479,18.5490956 91.168534,19.3023256 C92.0499175,20.1317829 92.3464401,21.2751938 92.0581018,22.7325581 L91.9258942,23.3624031 Z"/><path id="Path" d="M103.815218,27.9846564 L99.5397154,28 C97.9969813,28 96.8036811,27.5083667 95.9598148,26.5251001 C95.1159484,25.5418334 94.8546895,24.2874972 95.176038,22.7620914 L97.0394673,13.7266511 L95.3563066,13.7266511 L95.9441392,11.0281021 L97.6272999,11.0281021 L98.8656673,5.00958973 L101.599089,5 L100.360722,11.0165944 L106.043103,10.995497 L105.455271,13.694046 L99.772889,13.7151434 L97.9153379,22.7429119 C97.7546637,23.4806816 97.8852931,24.1027352 98.3072263,24.6090727 C98.7393822,25.1202298 99.3939479,25.4000037 100.070724,25.3628252 L104.346227,25.3474817 L103.815218,27.9846564 Z"/><path id="Path" d="M70.4984737,7.63527641 L59.5288989,7.67567115 C57.9831345,7.73209094 56.6621125,8.80598345 56.2919121,10.3071004 L55.28733,15.3083549 L62.1308051,15.2814251 L61.5880998,17.9378607 L54.7792655,17.9686376 L52.7027442,28 L50.0431034,28 L53.6361203,10.3032533 C54.298422,7.26768335 56.9654551,5.08806587 60.0735287,5.04231831 L71.0431034,5 L70.4984737,7.63527641 Z"/></g><text id="Secure-payments-by" fill="#9B9B9B" font-family="Helvetica" font-size="10" font-weight="normal"><tspan x="1.921" y="10">Secure payments by</tspan></text></g></g><g id="Group-23" fill="#D84E2E" fill-rule="nonzero" stroke="#D84E2E" transform="translate(0.000000, 7.000000)"><path id="Shape" d="M30.3386716,15.8309268 L28.7319506,15.8309268 L28.7319506,10.5854555 C28.7319506,4.77290627 24.0063009,-1.45661261e-13 18.1464951,-1.45661261e-13 C12.2866894,-1.45661261e-13 7.56103964,4.72564978 7.56103964,10.5854555 L7.56103964,15.8309268 L5.95431872,15.8309268 C2.69362037,15.8309268 -3.4283687e-13,18.4772906 -3.4283687e-13,21.7852455 L-3.4283687e-13,38.9393542 C-3.4283687e-13,42.2000525 2.64636388,44.8936729 5.95431872,44.8936729 L30.2441586,44.8936729 C33.5048569,44.8936729 36.1984773,42.247309 36.1984773,38.9393542 L36.1984773,21.7852455 C36.2929903,18.5245471 33.6466264,15.8309268 30.3386716,15.8309268 Z M10.5854555,10.5854555 C10.5854555,6.3796272 13.9879233,2.97715936 18.1937516,2.97715936 C22.3995799,2.97715936 25.8020478,6.3796272 25.8020478,10.5854555 L25.8020478,15.8309268 L10.5854555,15.8309268 L10.5854555,10.5854555 Z M33.3158309,38.9393542 C33.3158309,40.5933316 31.992649,41.9165135 30.3386716,41.9165135 L6.04883171,41.9165135 C4.39485429,41.9165135 3.07167235,40.5933316 3.07167235,38.9393542 L3.07167235,21.7852455 C3.07167235,20.131268 4.39485429,18.8080861 6.04883171,18.8080861 L30.3386716,18.8080861 C31.992649,18.8080861 33.3158309,20.131268 33.3158309,21.7852455 L33.3158309,38.9393542 Z"/><path id="Path" d="M22.8721449,25.8020478 L16.8705697,31.803623 L13.5153584,28.4484117 C12.9482804,27.8813337 12.0031504,27.8813337 11.388816,28.4484117 C10.821738,29.0154896 10.821738,29.9606196 11.388816,30.5749541 L15.7836703,34.9698083 C16.0672092,35.2533473 16.4452612,35.3951168 16.8233132,35.3951168 C17.2013652,35.3951168 17.5794172,35.2533473 17.8629562,34.9698083 L24.9041743,27.9285902 C25.4712523,27.3615122 25.4712523,26.4163823 24.9041743,25.8020478 C24.3843528,25.2349698 23.4392229,25.2349698 22.8721449,25.8020478 Z"/></g></g></g></g></g></g></g></g></svg>